<?xml version="1.0" encoding="UTF-8" standalone="no"?>
<svg
   xmlns:dc="http://purl.org/dc/elements/1.1/"
   xmlns:cc="http://creativecommons.org/ns#"
   xmlns:rdf="http://www.w3.org/1999/02/22-rdf-syntax-ns#"
   xmlns:svg="http://www.w3.org/2000/svg"
   xmlns="http://www.w3.org/2000/svg"
   xmlns:sodipodi="http://sodipodi.sourceforge.net/DTD/sodipodi-0.dtd"
   xmlns:inkscape="http://www.inkscape.org/namespaces/inkscape"
   version="1.1"
   viewBox="0.00 0.00 160.00 162.00"
   id="svg34"
   sodipodi:docname="biomarker detection.svg"
   inkscape:version="1.0.1 (3bc2e813f5, 2020-09-07)">
  <metadata
     id="metadata40">
    <rdf:RDF>
      <cc:Work
         rdf:about="">
        <dc:format>image/svg+xml</dc:format>
        <dc:type
           rdf:resource="http://purl.org/dc/dcmitype/StillImage" />
        <dc:title></dc:title>
      </cc:Work>
    </rdf:RDF>
  </metadata>
  <defs
     id="defs38" />
  <sodipodi:namedview
     pagecolor="#ffffff"
     bordercolor="#666666"
     borderopacity="1"
     objecttolerance="10"
     gridtolerance="10"
     guidetolerance="10"
     inkscape:pageopacity="0"
     inkscape:pageshadow="2"
     inkscape:window-width="1920"
     inkscape:window-height="1027"
     id="namedview36"
     showgrid="false"
     inkscape:zoom="5.308642"
     inkscape:cx="80"
     inkscape:cy="81"
     inkscape:window-x="1912"
     inkscape:window-y="-8"
     inkscape:window-maximized="1"
     inkscape:current-layer="svg34" />
  <path
     fill="#71b443"
     d="   M 62.58 94.18   L 66.21 102.01   Q 66.28 102.17 66.11 102.18   L 61.02 102.55   Q 60.69 102.58 60.54 102.29   Q 54.79 91.04 53.11 82.07   Q 51.45 73.25 57.18 66.89   C 62.41 61.10 73.75 59.46 81.64 58.83   Q 94.48 57.80 104.88 57.01   Q 106.30 56.90 105.07 56.19   L 89.79 47.38   Q 88.92 46.88 89.34 47.78   L 92.93 55.47   A 0.23 0.22 75.7 0 1 92.74 55.79   L 87.89 56.11   Q 87.54 56.13 87.38 55.83   Q 81.69 45.12 79.88 35.32   Q 78.51 27.85 82.48 22.67   Q 83.11 21.85 84.10 22.18   Q 85.97 22.82 86.44 24.32   Q 86.63 24.91 86.38 25.46   L 85.32 27.89   Q 85.08 28.43 85.60 28.73   L 123.73 50.74   A 0.48 0.48 0.0 0 0 124.34 50.63   L 126.46 48.03   A 1.12 1.10 23.6 0 1 127.50 47.63   Q 128.73 47.82 129.71 48.44   A 1.79 1.79 0.0 0 1 130.36 50.75   C 125.86 59.87 112.94 61.73 103.50 62.47   Q 91.76 63.39 79.88 64.31   Q 78.80 64.39 79.73 64.93   L 95.27 73.92   Q 96.15 74.43 95.72 73.51   L 92.14 65.80   A 0.20 0.19 -14.8 0 1 92.31 65.52   L 97.30 65.18   Q 97.60 65.16 97.74 65.44   C 101.80 73.31 108.03 87.00 104.41 95.49   Q 102.00 101.14 97.81 103.54   C 91.38 107.22 83.41 108.34 75.95 108.92   Q 64.26 109.83 53.03 110.74   Q 52.00 110.82 52.89 111.33   L 68.43 120.30   Q 69.34 120.82 68.90 119.87   L 65.27 112.10   Q 65.22 111.98 65.35 111.96   L 70.58 111.57   Q 70.77 111.55 70.86 111.73   Q 74.84 119.45 77.26 127.30   C 79.13 133.34 79.84 140.25 75.43 145.44   A 0.75 0.75 0.0 0 1 74.51 145.62   L 72.58 144.64   Q 71.19 143.93 71.80 142.49   L 72.90 139.93   Q 73.18 139.27 72.56 138.92   L 34.73 117.07   Q 34.19 116.76 33.80 117.25   L 32.02 119.45   Q 31.63 119.93 31.02 120.02   Q 29.09 120.28 27.96 118.48   A 1.46 1.44 -49.1 0 1 27.87 117.08   C 31.87 108.48 43.52 106.35 52.34 105.53   Q 66.45 104.23 78.56 103.47   A 0.33 0.33 0.0 0 0 78.71 102.86   L 63.00 93.79   Q 62.17 93.31 62.58 94.18   Z   M 85.53 32.73   A 0.51 0.51 0.0 0 0 84.78 33.29   L 86.69 41.34   A 0.51 0.51 0.0 0 0 86.93 41.66   L 111.76 55.99   A 0.51 0.51 0.0 0 0 112.16 56.04   L 120.10 53.69   A 0.51 0.51 0.0 0 0 120.21 52.76   L 85.53 32.73   Z   M 73.37 65.31   A 0.49 0.49 0.0 0 0 72.99 65.27   L 65.63 67.33   A 0.49 0.49 0.0 0 0 65.52 68.22   L 99.46 87.80   A 0.49 0.49 0.0 0 0 100.18 87.26   L 98.35 79.92   A 0.49 0.49 0.0 0 0 98.12 79.62   L 73.37 65.31   Z   M 99.8011 93.4866   A 1.23 1.23 0.0 0 0 99.3509 91.8064   L 62.1291 70.3164   A 1.23 1.23 0.0 0 0 60.4489 70.7666   L 58.4589 74.2134   A 1.23 1.23 0.0 0 0 58.9091 75.8936   L 96.1309 97.3836   A 1.23 1.23 0.0 0 0 97.8111 96.9334   L 99.8011 93.4866   Z   M 58.82 79.92   A 0.49 0.49 0.0 0 0 58.10 80.46   L 59.93 87.81   A 0.49 0.49 0.0 0 0 60.16 88.11   L 84.98 102.45   A 0.49 0.49 0.0 0 0 85.36 102.49   L 92.62 100.39   A 0.49 0.49 0.0 0 0 92.72 99.49   L 58.82 79.92   Z   M 72.74 134.96   A 0.53 0.53 0.0 0 0 73.52 134.38   L 71.58 126.36   A 0.53 0.53 0.0 0 0 71.33 126.03   L 46.51 111.69   A 0.53 0.53 0.0 0 0 46.09 111.65   L 38.23 114.00   A 0.53 0.53 0.0 0 0 38.11 114.96   L 72.74 134.96   Z"
     id="path22" />
  <path
     fill="#ffffff"
     d="   M 85.53 32.73   L 120.21 52.76   A 0.51 0.51 0.0 0 1 120.10 53.69   L 112.16 56.04   A 0.51 0.51 0.0 0 1 111.76 55.99   L 86.93 41.66   A 0.51 0.51 0.0 0 1 86.69 41.34   L 84.78 33.29   A 0.51 0.51 0.0 0 1 85.53 32.73   Z"
     id="path24" />
  <path
     fill="#ffffff"
     d="   M 73.37 65.31   L 98.12 79.62   A 0.49 0.49 0.0 0 1 98.35 79.92   L 100.18 87.26   A 0.49 0.49 0.0 0 1 99.46 87.80   L 65.52 68.22   A 0.49 0.49 0.0 0 1 65.63 67.33   L 72.99 65.27   A 0.49 0.49 0.0 0 1 73.37 65.31   Z"
     id="path26" />
  <path
     fill="#ffffff"
     d="   M 97.8111 96.9334   A 1.23 1.23 0.0 0 1 96.1309 97.3836   L 58.9091 75.8936   A 1.23 1.23 0.0 0 1 58.4589 74.2134   L 60.4489 70.7666   A 1.23 1.23 0.0 0 1 62.1291 70.3164   L 99.3509 91.8064   A 1.23 1.23 0.0 0 1 99.8011 93.4866   L 97.8111 96.9334   Z"
     id="path28" />
  <path
     fill="#ffffff"
     d="   M 58.82 79.92   L 92.72 99.49   A 0.49 0.49 0.0 0 1 92.62 100.39   L 85.36 102.49   A 0.49 0.49 0.0 0 1 84.98 102.45   L 60.16 88.11   A 0.49 0.49 0.0 0 1 59.93 87.81   L 58.10 80.46   A 0.49 0.49 0.0 0 1 58.82 79.92   Z"
     id="path30" />
  <path
     fill="#ffffff"
     d="   M 72.74 134.96   L 38.11 114.96   A 0.53 0.53 0.0 0 1 38.23 114.00   L 46.09 111.65   A 0.53 0.53 0.0 0 1 46.51 111.69   L 71.33 126.03   A 0.53 0.53 0.0 0 1 71.58 126.36   L 73.52 134.38   A 0.53 0.53 0.0 0 1 72.74 134.96   Z"
     id="path32" />
</svg>
