<svg width="24" height="24" viewBox="0 0 24 24" fill="none" xmlns="http://www.w3.org/2000/svg">
<path d="M17.5 4V4.5H18H19C19.8239 4.5 20.5 5.17614 20.5 6V20C20.5 20.8239 19.8239 21.5 19 21.5H5C4.16783 21.5 3.50009 20.8256 3.5 20.0002C3.5 20.0001 3.5 20.0001 3.5 20L3.51 6.00036V6C3.51 5.17123 4.17103 4.5 5 4.5H6H6.5V4V2.5H7.5V4V4.5H8H16H16.5V4V2.5H17.5V4ZM19 20.5H19.5V20V10V9.5H19H5H4.5V10V20V20.5H5H19ZM19 8.5H19.5V8V6V5.5H19H5H4.5V6V8V8.5H5H19ZM7.5 13.5V12.5H8.5V13.5H7.5ZM12.5 13.5H11.5V12.5H12.5V13.5ZM15.5 13.5V12.5H16.5V13.5H15.5ZM7.5 17.5V16.5H8.5V17.5H7.5ZM12.5 17.5H11.5V16.5H12.5V17.5ZM15.5 17.5V16.5H16.5V17.5H15.5Z" fill="black" stroke="white"/>
</svg>
