<?xml version="1.0" encoding="UTF-8" standalone="no"?>
<svg
   xmlns:dc="http://purl.org/dc/elements/1.1/"
   xmlns:cc="http://creativecommons.org/ns#"
   xmlns:rdf="http://www.w3.org/1999/02/22-rdf-syntax-ns#"
   xmlns:svg="http://www.w3.org/2000/svg"
   xmlns="http://www.w3.org/2000/svg"
   xmlns:sodipodi="http://sodipodi.sourceforge.net/DTD/sodipodi-0.dtd"
   xmlns:inkscape="http://www.inkscape.org/namespaces/inkscape"
   version="1.1"
   viewBox="0.00 0.00 158.00 162.00"
   id="svg46"
   sodipodi:docname="cardiovascular disease.svg"
   inkscape:version="1.0.1 (3bc2e813f5, 2020-09-07)">
  <metadata
     id="metadata52">
    <rdf:RDF>
      <cc:Work
         rdf:about="">
        <dc:format>image/svg+xml</dc:format>
        <dc:type
           rdf:resource="http://purl.org/dc/dcmitype/StillImage" />
      </cc:Work>
    </rdf:RDF>
  </metadata>
  <defs
     id="defs50" />
  <sodipodi:namedview
     pagecolor="#ffffff"
     bordercolor="#666666"
     borderopacity="1"
     objecttolerance="10"
     gridtolerance="10"
     guidetolerance="10"
     inkscape:pageopacity="0"
     inkscape:pageshadow="2"
     inkscape:window-width="1920"
     inkscape:window-height="1027"
     id="namedview48"
     showgrid="false"
     inkscape:zoom="15.015107"
     inkscape:cx="54.443948"
     inkscape:cy="61.94223"
     inkscape:window-x="1912"
     inkscape:window-y="-8"
     inkscape:window-maximized="1"
     inkscape:current-layer="svg46" />
  <path
     fill="#ffffff"
     d="   M 148.54 39.17   L 158.00 39.21   L 158.00 61.67   Q 156.51 57.30 155.17 53.02   Q 153.48 47.61 148.54 39.17   Z"
     id="path34" />
  <path
     fill="#71b443"
     d="M 40.11,83.57 25.13,83.36 c -0.326667,-0.0067 -0.61,-0.123333 -0.85,-0.35 -0.493333,-0.48 -0.88,-1.1 -1.16,-1.86 -1.25989,-5.112947 -1.236294,-11.400535 -0.26,-15.93 1.979396,-9.25998 9.89,-19.453333 21.39,-22.78 14.57,-4.21 29.04,2.8 35.6,16.31 0.212394,0.456542 0.862514,0.456542 1.09,0 4.02,-8.266667 10.15,-13.633333 18.39,-16.1 4,-1.2 7.85,-1.616667 11.55,-1.25 14.97,1.47 25.74,11.86 27.43,26.94 1.9,16.79 -6.16,29.7 -19.07,39.42 -13.32,10.02 -25.85,19.73 -36.5,31.73 -1.486667,1.68 -3.01,1.71333 -4.57,0.1 C 72.93,134.16 67.69,128.78 61.86,123.93 55.966667,119.02333 49.66,114.05333 42.94,109.02 36.62,104.3 31.06,98.84 27.21,92.2 c -0.279161,-0.49054 0.07232,-1.098661 0.63,-1.09 8.366667,0.08667 16.903333,0.11 25.61,0.07 3.9,-0.02 5.31,-3.81 6.73,-6.78 0.26977,-0.557296 1.073833,-0.52637 1.3,0.05 l 8.29,21.63 c 0.282272,0.73074 0.838308,1.32265 1.55,1.65 2.253333,1.02667 3.99,0.33667 5.21,-2.07 4.34,-8.58 8.976667,-17.92 13.91,-28.02 0.107532,-0.224258 0.379419,-0.314887 0.6,-0.2 0.28,0.14 0.47,0.36 0.57,0.66 2.16,6.646667 4.366667,13.43 6.62,20.35 0.56,1.74 1.656667,2.88667 3.29,3.44 0.35333,0.12 0.70333,0.11333 1.05,-0.02 3.32,-1.32 5.08,-6.98 6.81,-9.95 0.16644,-0.280936 0.43668,-0.482717 0.75,-0.56 2.64667,-0.64 4.84667,-0.233333 6.6,1.22 6.7,5.52 15.26,-2.31 10.86,-9.31 -1.7,-2.706667 -4.14333,-3.8 -7.33,-3.28 -2.96,0.49 -4.32,3.37 -7.4,3.58 -2.79,0.18 -8.13,-0.39 -9.3,2.98 -0.52,1.493333 -1.02667,1.49 -1.52,-0.01 -2.193333,-6.626667 -4.436667,-13.393333 -6.73,-20.3 -1.09,-3.31 -5.12,-4.28 -6.88,-0.84 -4.446667,8.693333 -8.646667,17.093333 -12.6,25.2 -0.673333,1.38 -1.29,2.52 -1.85,3.42 -0.446667,0.726667 -0.823333,0.693333 -1.13,-0.1 C 70.103333,86.866667 67.556667,80.23 65.21,74.01 63.99,70.79 60.39,69.68 58.37,73 c -1.546667,2.54 -3.026667,5.176667 -4.44,7.91 -1.03,1.98 -1.89,2.81 -4.33,2.87 -3.226667,0.07333 -6.39,0.0033 -9.49,-0.21 z"
     id="path36"
     sodipodi:nodetypes="cccccccccccccccccccccccccccccccccccccccccccccccc" />
  <path
     fill="#ffffff"
     d="   M 2.30 100.25   Q 8.02 125.33 26.70 142.95   L 2.88 142.89   Q 2.38 142.89 2.38 142.38   L 2.30 100.25   Z"
     id="path42" />
  <path
     fill="#ffffff"
     d="   M 158.00 102.57   L 158.00 143.01   L 133.97 142.99   Q 136.45 140.49 138.73 137.98   Q 152.50 122.81 158.00 102.57   Z"
     id="path44" />
</svg>
