<?xml version="1.0" encoding="UTF-8" standalone="no"?>
<svg
   xmlns:dc="http://purl.org/dc/elements/1.1/"
   xmlns:cc="http://creativecommons.org/ns#"
   xmlns:rdf="http://www.w3.org/1999/02/22-rdf-syntax-ns#"
   xmlns:svg="http://www.w3.org/2000/svg"
   xmlns="http://www.w3.org/2000/svg"
   xmlns:sodipodi="http://sodipodi.sourceforge.net/DTD/sodipodi-0.dtd"
   xmlns:inkscape="http://www.inkscape.org/namespaces/inkscape"
   version="1.1"
   viewBox="0.00 0.00 160.00 162.00"
   id="svg26"
   sodipodi:docname="chronic-kidney-disease.svg"
   inkscape:version="1.0.1 (3bc2e813f5, 2020-09-07)">
  <metadata
     id="metadata32">
    <rdf:RDF>
      <cc:Work
         rdf:about="">
        <dc:format>image/svg+xml</dc:format>
        <dc:type
           rdf:resource="http://purl.org/dc/dcmitype/StillImage" />
      </cc:Work>
    </rdf:RDF>
  </metadata>
  <defs
     id="defs30" />
  <sodipodi:namedview
     pagecolor="#ffffff"
     bordercolor="#666666"
     borderopacity="1"
     objecttolerance="10"
     gridtolerance="10"
     guidetolerance="10"
     inkscape:pageopacity="0"
     inkscape:pageshadow="2"
     inkscape:window-width="1920"
     inkscape:window-height="1027"
     id="namedview28"
     showgrid="false"
     inkscape:zoom="5.308642"
     inkscape:cx="80"
     inkscape:cy="81"
     inkscape:window-x="1912"
     inkscape:window-y="-8"
     inkscape:window-maximized="1"
     inkscape:current-layer="svg26" />
  <path
     fill="#71b443"
     d="   M 133.47 53.49   Q 137.15 60.81 138.24 68.87   Q 138.33 69.53 137.67 69.53   C 134.98 69.51 130.35 70.32 128.56 67.82   Q 124.94 62.76 121.82 57.68   A 4.10 4.10 0.0 0 0 118.33 55.73   Q 106.91 55.72 95.31 55.70   C 93.08 55.70 92.38 54.06 91.41 52.45   C 85.50 42.64 94.66 34.29 103.94 33.56   C 118.24 32.44 127.50 41.64 133.47 53.49   Z"
     id="path18" />
  <path
     fill="#71b443"
     d="   M 44.60 81.42   C 42.19 80.28 39.36 78.82 36.85 80.62   Q 30.83 84.91 24.02 89.42   A 0.84 0.83 77.0 0 1 22.73 88.61   Q 25.36 69.87 39.60 57.94   Q 50.49 48.81 63.83 52.53   C 72.03 54.81 80.28 65.68 71.29 72.66   Q 64.49 77.93 56.56 83.64   C 53.45 85.88 47.67 82.87 44.60 81.42   Z"
     id="path20" />
  <path
     fill="#71b443"
     d="   M 100.44 79.38   C 92.83 80.28 88.51 86.12 87.81 93.31   Q 87.02 101.38 86.40 111.38   C 85.92 118.96 84.89 125.77 78.12 129.84   A 0.51 0.51 0.0 0 1 77.41 129.63   L 77.21 129.24   A 0.79 0.78 -30.7 0 1 77.47 128.24   C 81.71 125.37 82.29 121.05 82.42 116.25   Q 82.77 102.74 82.48 88.53   Q 82.33 80.89 85.18 72.78   C 88.30 63.93 94.05 60.44 103.01 60.63   Q 109.43 60.77 114.73 60.73   Q 117.45 60.72 119.08 62.83   Q 122.36 67.06 125.59 72.47   Q 126.88 74.64 129.39 74.53   C 132.19 74.41 135.04 74.50 137.83 74.48   Q 138.41 74.48 138.32 75.05   Q 137.66 79.14 136.47 81.44   Q 131.68 90.64 125.46 98.38   C 121.58 103.20 115.93 106.01 109.74 105.02   C 105.09 104.28 98.89 101.83 96.71 97.30   C 94.12 91.91 98.31 84.62 100.75 79.83   A 0.31 0.31 0.0 0 0 100.44 79.38   Z"
     id="path22" />
  <path
     fill="#71b443"
     d="   M 59.38 98.35   Q 61.34 103.34 62.33 108.13   C 64.21 117.15 57.41 120.93 49.88 122.07   C 41.19 123.39 35.04 118.70 31.11 111.52   Q 27.38 104.70 24.57 97.94   A 2.85 2.84 -29.3 0 1 25.52 94.56   Q 31.13 90.45 37.36 86.36   Q 39.56 84.91 41.91 85.77   Q 47.36 87.78 53.00 90.18   A 3.92 3.92 0.0 0 0 56.90 89.70   L 67.32 81.82   A 1.31 1.30 -44.8 0 1 68.89 81.82   C 76.03 87.19 77.79 98.64 76.65 106.58   C 74.88 118.93 73.53 130.49 73.43 143.19   C 73.42 145.34 74.47 147.10 75.46 148.90   Q 76.84 151.43 74.47 149.79   C 70.67 147.16 69.38 141.93 69.64 137.03   Q 70.08 128.28 70.45 120.32   C 70.88 111.10 70.75 100.96 59.90 97.78   Q 59.07 97.54 59.38 98.35   Z"
     id="path24" />
</svg>
