<svg width="158" height="164" viewBox="0 0 158 164" fill="none" xmlns="http://www.w3.org/2000/svg">
<path d="M45.72 67.75C54.44 50.45 66 35.22 79.64 20.68C79.709 20.607 79.7923 20.5491 79.8848 20.5098C79.9772 20.4705 80.0767 20.4507 80.1772 20.4517C80.2776 20.4526 80.3768 20.4743 80.4684 20.5153C80.5601 20.5563 80.6424 20.6158 80.71 20.69C97.21 38.75 112.45 58.57 120 81.91C123.9 93.98 124.5 106.1 119.36 117.51C112.59 132.53 97.41 139.51 81.27 140.04C75.57 140.227 70.5 139.623 66.06 138.23C53.92 134.42 43.08 126.15 39.22 113.81C38.0933 110.217 37.4967 105.87 37.43 100.77C37.2833 90.0167 40.0467 79.01 45.72 67.75ZM70.707 100.094C72.2573 100.156 73.776 99.4211 74.929 98.0504C76.082 96.6797 76.7749 94.7856 76.8553 92.7848C76.8951 91.7941 76.7833 90.8071 76.5263 89.88C76.2693 88.9529 75.8722 88.104 75.3575 87.3817C74.8429 86.6594 74.2208 86.0778 73.5268 85.6702C72.8329 85.2626 72.0806 85.0369 71.313 85.0061C69.7627 84.9438 68.244 85.6789 67.091 87.0496C65.938 88.4204 65.2451 90.3144 65.1647 92.3152C65.1249 93.3059 65.2367 94.293 65.4937 95.22C65.7507 96.1471 66.1478 96.996 66.6625 97.7183C67.1771 98.4407 67.7992 99.0222 68.4932 99.4298C69.1871 99.8374 69.9394 100.063 70.707 100.094ZM86.87 85.25L85.75 84.62C85.6847 84.583 85.6076 84.5727 85.5348 84.5913C85.4621 84.61 85.3994 84.6561 85.36 84.72L71.75 108.49C71.6283 108.702 71.5189 108.919 71.4279 109.127C71.3369 109.336 71.2662 109.532 71.2197 109.705C71.1733 109.877 71.152 110.023 71.1572 110.134C71.1624 110.245 71.194 110.318 71.25 110.35L72.01 110.79C72.0657 110.822 72.1449 110.812 72.2429 110.761C72.3409 110.71 72.4559 110.618 72.5813 110.49C72.7067 110.363 72.84 110.203 72.9736 110.02C73.1072 109.836 73.2385 109.632 73.36 109.42L86.97 85.65C86.9899 85.6172 87.0031 85.5808 87.0089 85.5429C87.0146 85.505 87.0128 85.4663 87.0035 85.4291C86.9942 85.3919 86.9776 85.357 86.9547 85.3262C86.9318 85.2955 86.903 85.2696 86.87 85.25ZM86.7634 110.263C87.5283 110.295 88.294 110.132 89.0166 109.782C89.7392 109.432 90.4047 108.902 90.975 108.224C91.5453 107.545 92.0092 106.73 92.3404 105.826C92.6715 104.922 92.8633 103.946 92.9049 102.954C92.9889 100.951 92.4557 99.0039 91.4227 97.5416C90.3897 96.0793 88.9414 95.2214 87.3966 95.1566C86.6317 95.1246 85.866 95.2882 85.1434 95.6381C84.4208 95.9881 83.7553 96.5176 83.185 97.1963C82.6147 97.8751 82.1508 98.6898 81.8196 99.5939C81.4885 100.498 81.2967 101.474 81.2551 102.466C81.1711 104.469 81.7043 106.416 82.7373 107.878C83.7703 109.341 85.2185 110.199 86.7634 110.263Z" fill="white"/>
<path d="M70.9609 98.1299C70.1043 98.1254 69.2858 97.5364 68.6855 96.4924C68.0852 95.4485 67.7523 94.035 67.76 92.5631C67.7638 91.8343 67.8511 91.113 68.017 90.4405C68.1829 89.768 68.424 89.1574 68.7266 88.6436C69.0293 88.1299 69.3875 87.7229 69.7808 87.4461C70.1742 87.1692 70.5949 87.0279 71.0191 87.0301C71.8757 87.0346 72.6942 87.6236 73.2945 88.6676C73.8948 89.7116 74.2277 91.125 74.22 92.5969C74.2162 93.3258 74.1289 94.047 73.963 94.7195C73.7972 95.392 73.556 96.0026 73.2534 96.5164C72.9508 97.0302 72.5925 97.4371 72.1992 97.714C71.8058 97.9908 71.3851 98.1322 70.9609 98.1299Z" fill="white"/>
<path d="M87.08 108.29C86.2207 108.29 85.3966 107.704 84.789 106.661C84.1814 105.619 83.84 104.205 83.84 102.73C83.84 101.255 84.1814 99.8412 84.789 98.7985C85.3966 97.7558 86.2207 97.17 87.08 97.17C87.9393 97.17 88.7634 97.7558 89.371 98.7985C89.9786 99.8412 90.32 101.255 90.32 102.73C90.32 104.205 89.9786 105.619 89.371 106.661C88.7634 107.704 87.9393 108.29 87.08 108.29Z" fill="white"/>
</svg>
