<svg width="108" height="144" viewBox="0 0 108 144" fill="none" xmlns="http://www.w3.org/2000/svg">
<g clip-path="url(#clip0_204_90)">
<path d="M19.2955 59.2984C28.0155 41.9984 39.5755 26.7684 53.2155 12.2284C53.2846 12.1554 53.3679 12.0975 53.4603 12.0582C53.5527 12.0189 53.6523 11.9991 53.7527 12C53.8532 12.001 53.9523 12.0226 54.044 12.0636C54.1357 12.1046 54.2179 12.1641 54.2855 12.2384C70.7855 30.2984 86.0255 50.1184 93.5755 73.4584C97.4755 85.5284 98.0755 97.6484 92.9355 109.058C86.1655 124.078 70.9855 131.058 54.8455 131.588C49.1455 131.775 44.0755 131.172 39.6355 129.778C27.4955 125.968 16.6555 117.698 12.7955 105.358C11.6689 101.765 11.0722 97.4184 11.0055 92.3184C10.8589 81.565 13.6222 70.5584 19.2955 59.2984ZM44.2825 91.6423C45.8328 91.7046 47.3515 90.9695 48.5045 89.5988C49.6576 88.228 50.3505 86.334 50.4308 84.3332C50.4706 83.3425 50.3588 82.3554 50.1018 81.4284C49.8449 80.5013 49.4477 79.6524 48.933 78.9301C48.4184 78.2077 47.7963 77.6262 47.1024 77.2186C46.4084 76.811 45.6562 76.5853 44.8885 76.5545C43.3383 76.4922 41.8196 77.2273 40.6666 78.598C39.5135 79.9687 38.8206 81.8628 38.7402 83.8636C38.7005 84.8543 38.8122 85.8413 39.0692 86.7684C39.3262 87.6955 39.7234 88.5444 40.238 89.2667C40.7527 89.989 41.3748 90.5706 42.0687 90.9782C42.7627 91.3858 43.5149 91.6115 44.2825 91.6423ZM60.4455 76.7984L59.3255 76.1684C59.2602 76.1313 59.1831 76.121 59.1104 76.1397C59.0376 76.1583 58.975 76.2045 58.9355 76.2684L45.3255 100.038C45.2039 100.251 45.0944 100.467 45.0034 100.676C44.9125 100.884 44.8417 101.08 44.7953 101.253C44.7488 101.426 44.7276 101.572 44.7328 101.682C44.738 101.793 44.7695 101.867 44.8255 101.898L45.5855 102.338C45.6413 102.371 45.7204 102.361 45.8184 102.309C45.9164 102.258 46.0314 102.166 46.1568 102.039C46.2822 101.912 46.4155 101.752 46.5491 101.568C46.6827 101.384 46.8141 101.18 46.9355 100.968L60.5455 77.1984C60.5654 77.1656 60.5787 77.1292 60.5844 77.0913C60.5901 77.0534 60.5883 77.0147 60.579 76.9775C60.5697 76.9403 60.5531 76.9053 60.5302 76.8746C60.5073 76.8438 60.4785 76.8179 60.4455 76.7984ZM60.3389 101.812C61.1039 101.844 61.8695 101.68 62.5922 101.33C63.3148 100.98 63.9802 100.451 64.5505 99.7721C65.1208 99.0933 65.5848 98.2786 65.9159 97.3745C66.247 96.4703 66.4389 95.4944 66.4804 94.5025C66.5644 92.4992 66.0312 90.5523 64.9982 89.09C63.9652 87.6276 62.517 86.7697 60.9721 86.705C60.2072 86.6729 59.4416 86.8365 58.7189 87.1865C57.9963 87.5365 57.3309 88.066 56.7606 88.7447C56.1903 89.4234 55.7263 90.2381 55.3952 91.1423C55.064 92.0464 54.8722 93.0224 54.8306 94.0143C54.7467 96.0176 55.2798 97.9645 56.3129 99.4268C57.3459 100.889 58.7941 101.747 60.3389 101.812Z" fill="white"/>
<path d="M45.201 90.0998C44.3444 90.0953 43.5259 89.5063 42.9256 88.4624C42.3253 87.4184 41.9924 86.005 42.0001 84.533C42.0039 83.8042 42.0913 83.0829 42.2571 82.4104C42.423 81.7379 42.6641 81.1273 42.9667 80.6136C43.2694 80.0998 43.6276 79.6928 44.0209 79.416C44.4143 79.1391 44.8351 78.9978 45.2592 79C46.1159 79.0045 46.9344 79.5935 47.5346 80.6375C48.1349 81.6815 48.4678 83.0949 48.4601 84.5668C48.4563 85.2957 48.369 86.0169 48.2031 86.6894C48.0373 87.3619 47.7962 87.9725 47.4935 88.4863C47.1909 89.0001 46.8327 89.407 46.4393 89.6839C46.046 89.9607 45.6252 90.1021 45.201 90.0998Z" fill="white"/>
<path d="M60.24 100.12C59.3807 100.12 58.5566 99.5342 57.949 98.4915C57.3414 97.4488 57 96.0346 57 94.56C57 93.0854 57.3414 91.6712 57.949 90.6285C58.5566 89.5858 59.3807 89 60.24 89C61.0993 89 61.9234 89.5858 62.531 90.6285C63.1386 91.6712 63.48 93.0854 63.48 94.56C63.48 96.0346 63.1386 97.4488 62.531 98.4915C61.9234 99.5342 61.0993 100.12 60.24 100.12Z" fill="white"/>
</g>
<defs>
<clipPath id="clip0_204_90">
<rect width="108" height="144" fill="white"/>
</clipPath>
</defs>
</svg>
