<svg width="158" height="164" viewBox="0 0 158 164" fill="none" xmlns="http://www.w3.org/2000/svg">
<g clip-path="url(#clip0_204_74)">
<path d="M20.2955 101.298C29.0155 83.9984 40.5755 68.7684 54.2155 54.2284C54.2846 54.1554 54.3679 54.0975 54.4603 54.0582C54.5527 54.0189 54.6523 53.9991 54.7527 54C54.8532 54.001 54.9523 54.0226 55.044 54.0636C55.1357 54.1046 55.2179 54.1641 55.2855 54.2384C71.7855 72.2984 87.0255 92.1184 94.5755 115.458C98.4755 127.528 99.0755 139.648 93.9355 151.058C87.1655 166.078 71.9855 173.058 55.8455 173.588C50.1455 173.775 45.0755 173.172 40.6355 171.778C28.4955 167.968 17.6555 159.698 13.7955 147.358C12.6689 143.765 12.0722 139.418 12.0055 134.318C11.8589 123.565 14.6222 112.558 20.2955 101.298ZM45.2825 133.642C46.8328 133.705 48.3515 132.969 49.5045 131.599C50.6576 130.228 51.3505 128.334 51.4308 126.333C51.4706 125.343 51.3588 124.355 51.1018 123.428C50.8449 122.501 50.4477 121.652 49.933 120.93C49.4184 120.208 48.7963 119.626 48.1024 119.219C47.4084 118.811 46.6562 118.585 45.8885 118.554C44.3383 118.492 42.8196 119.227 41.6666 120.598C40.5135 121.969 39.8206 123.863 39.7402 125.864C39.7005 126.854 39.8122 127.841 40.0692 128.768C40.3262 129.695 40.7234 130.544 41.238 131.267C41.7527 131.989 42.3748 132.571 43.0687 132.978C43.7627 133.386 44.5149 133.611 45.2825 133.642ZM61.4455 118.798L60.3255 118.168C60.2602 118.131 60.1831 118.121 60.1104 118.14C60.0376 118.158 59.975 118.204 59.9355 118.268L46.3255 142.038C46.2039 142.251 46.0944 142.467 46.0034 142.676C45.9125 142.884 45.8417 143.08 45.7953 143.253C45.7488 143.426 45.7276 143.572 45.7328 143.682C45.738 143.793 45.7695 143.867 45.8255 143.898L46.5855 144.338C46.6413 144.371 46.7204 144.361 46.8184 144.309C46.9164 144.258 47.0314 144.166 47.1568 144.039C47.2822 143.912 47.4155 143.752 47.5491 143.568C47.6827 143.384 47.8141 143.18 47.9355 142.968L61.5455 119.198C61.5654 119.166 61.5787 119.129 61.5844 119.091C61.5901 119.053 61.5883 119.015 61.579 118.978C61.5697 118.94 61.5531 118.905 61.5302 118.875C61.5073 118.844 61.4785 118.818 61.4455 118.798ZM61.3389 143.812C62.1039 143.844 62.8695 143.68 63.5922 143.33C64.3148 142.98 64.9802 142.451 65.5505 141.772C66.1208 141.093 66.5848 140.279 66.9159 139.374C67.247 138.47 67.4389 137.494 67.4804 136.502C67.5644 134.499 67.0312 132.552 65.9982 131.09C64.9652 129.628 63.517 128.77 61.9721 128.705C61.2072 128.673 60.4416 128.837 59.7189 129.187C58.9963 129.536 58.3309 130.066 57.7606 130.745C57.1903 131.423 56.7263 132.238 56.3952 133.142C56.064 134.046 55.8722 135.022 55.8306 136.014C55.7467 138.018 56.2798 139.965 57.3129 141.427C58.3459 142.889 59.7941 143.747 61.3389 143.812Z" fill="white"/>
<path d="M45.5364 131.678C44.6798 131.674 43.8613 131.085 43.261 130.041C42.6608 128.997 42.3278 127.583 42.3355 126.111C42.3394 125.383 42.4267 124.661 42.5925 123.989C42.7584 123.316 42.9995 122.706 43.3022 122.192C43.6048 121.678 43.963 121.271 44.3564 120.994C44.7497 120.718 45.1705 120.576 45.5946 120.578C46.4513 120.583 47.2698 121.172 47.8701 122.216C48.4703 123.26 48.8032 124.673 48.7955 126.145C48.7917 126.874 48.7044 127.595 48.5386 128.268C48.3727 128.94 48.1316 129.551 47.8289 130.065C47.5263 130.579 47.1681 130.985 46.7747 131.262C46.3814 131.539 45.9606 131.681 45.5364 131.678Z" fill="white"/>
<path d="M61.6555 141.838C60.7962 141.838 59.9721 141.253 59.3645 140.21C58.7569 139.167 58.4155 137.753 58.4155 136.278C58.4155 134.804 58.7569 133.39 59.3645 132.347C59.9721 131.304 60.7962 130.718 61.6555 130.718C62.5148 130.718 63.339 131.304 63.9466 132.347C64.5542 133.39 64.8955 134.804 64.8955 136.278C64.8955 137.753 64.5542 139.167 63.9466 140.21C63.339 141.253 62.5148 141.838 61.6555 141.838Z" fill="white"/>
</g>
<defs>
<clipPath id="clip0_204_74">
<rect width="158" height="164" fill="white"/>
</clipPath>
</defs>
</svg>
