<?xml version="1.0" encoding="UTF-8" standalone="no"?>
<svg
   xmlns:dc="http://purl.org/dc/elements/1.1/"
   xmlns:cc="http://creativecommons.org/ns#"
   xmlns:rdf="http://www.w3.org/1999/02/22-rdf-syntax-ns#"
   xmlns:svg="http://www.w3.org/2000/svg"
   xmlns="http://www.w3.org/2000/svg"
   xmlns:sodipodi="http://sodipodi.sourceforge.net/DTD/sodipodi-0.dtd"
   xmlns:inkscape="http://www.inkscape.org/namespaces/inkscape"
   version="1.1"
   viewBox="0.00 0.00 158.00 162.00"
   id="svg86"
   sodipodi:docname="diabetes.svg"
   inkscape:version="1.0.1 (3bc2e813f5, 2020-09-07)">
  <metadata
     id="metadata92">
    <rdf:RDF>
      <cc:Work
         rdf:about="">
        <dc:format>image/svg+xml</dc:format>
        <dc:type
           rdf:resource="http://purl.org/dc/dcmitype/StillImage" />
      </cc:Work>
    </rdf:RDF>
  </metadata>
  <defs
     id="defs90" />
  <sodipodi:namedview
     pagecolor="#ffffff"
     bordercolor="#666666"
     borderopacity="1"
     objecttolerance="10"
     gridtolerance="10"
     guidetolerance="10"
     inkscape:pageopacity="0"
     inkscape:pageshadow="2"
     inkscape:window-width="1920"
     inkscape:window-height="1027"
     id="namedview88"
     showgrid="false"
     inkscape:zoom="5.308642"
     inkscape:cx="79"
     inkscape:cy="81"
     inkscape:window-x="1912"
     inkscape:window-y="-8"
     inkscape:window-maximized="1"
     inkscape:current-layer="svg86" />
  <path
     fill="#71b443"
     d="   M 59.25 35.82   Q 59.02 46.28 59.25 56.49   A 0.04 0.04 0.0 0 1 59.19 56.52   Q 55.86 53.91 52.18 50.66   Q 51.98 50.48 51.98 50.21   Q 52.04 43.31 51.92 35.73   C 51.78 26.82 60.77 25.01 67.73 24.01   Q 80.87 22.13 95.67 24.75   C 101.04 25.71 107.36 28.50 107.37 34.83   Q 107.37 42.27 107.38 49.63   Q 107.38 50.26 106.75 50.25   Q 103.62 50.22 101.26 53.15   Q 100.18 54.49 100.18 52.77   L 100.21 36.01   Q 100.21 35.28 99.50 35.09   Q 79.44 29.76 59.79 35.12   Q 59.26 35.27 59.25 35.82   Z"
     id="path48" />
  <path
     fill="#71b443"
     d="   M 49.64 48.51   C 47.34 46.38 41.98 42.82 41.16 40.03   C 39.63 34.82 45.68 31.20 49.83 34.84   A 1.24 1.20 -70.0 0 1 50.24 35.76   L 50.25 48.25   Q 50.25 49.08 49.64 48.51   Z"
     id="path50" />
  <path
     fill="#71b443"
     d="   M 71.03 44.60   Q 72.04 46.98 71.49 50.37   Q 71.30 51.47 70.40 52.18   A 0.55 0.55 0.0 0 1 69.50 51.75   L 69.49 45.48   Q 69.48 43.30 71.66 43.14   Q 75.26 42.88 78.72 43.15   A 2.06 2.06 0.0 0 1 80.62 45.24   L 80.51 51.72   Q 80.50 52.53 79.78 52.15   Q 79.44 51.97 79.16 51.68   Q 78.56 51.07 78.46 50.22   Q 78.16 47.66 78.73 44.91   Q 78.95 43.84 78.21 44.64   Q 78.10 44.76 78.00 44.88   A 1.05 1.03 20.1 0 1 77.21 45.24   L 72.82 45.24   A 1.38 1.36 -21.8 0 1 71.84 44.83   L 71.37 44.37   Q 70.60 43.60 71.03 44.60   Z"
     id="path52" />
  <path
     fill="#71b443"
     d="   M 87.98 49.97   L 88.04 44.72   A 0.73 0.73 0.0 0 1 88.20 44.27   L 88.96 43.30   A 0.73 0.73 0.0 0 1 90.27 43.76   L 90.25 51.09   A 0.73 0.73 0.0 0 1 88.93 51.52   L 88.12 50.41   A 0.73 0.73 0.0 0 1 87.98 49.97   Z"
     id="path54" />
  <path
     fill="#71b443"
     d="   M 78.9397 52.8910   A 1.05 1.05 0.0 0 1 77.8843 53.9355   L 71.9643 53.9045   A 1.05 1.05 0.0 0 1 70.9198 52.8490   L 70.9203 52.7690   A 1.05 1.05 0.0 0 1 71.9757 51.7245   L 77.8957 51.7555   A 1.05 1.05 0.0 0 1 78.9402 52.8110   L 78.9397 52.8910   Z"
     id="path56" />
  <path
     fill="#71b443"
     d="   M 101.64 97.53   A 2.64 2.59 57.4 0 0 101.93 96.14   Q 101.21 86.41 99.62 72.54   Q 98.93 66.55 99.86 60.46   Q 100.43 56.75 103.75 53.74   C 107.42 50.43 111.54 53.51 111.86 57.91   C 112.25 63.24 111.69 69.28 113.85 74.16   C 116.69 80.55 117.41 86.20 116.25 93.13   Q 115.00 100.62 113.82 107.31   Q 111.13 122.70 116.50 137.48   Q 116.73 138.11 116.05 138.12   L 90.43 138.23   A 1.32 1.31 77.0 0 1 89.25 137.49   C 87.98 134.82 85.47 131.43 85.48 128.50   Q 85.54 116.78 85.50 104.91   Q 85.50 104.26 86.15 104.19   Q 93.99 103.25 100.53 98.79   Q 101.24 98.30 101.64 97.53   Z"
     id="path58" />
  <path
     fill="#71b443"
     d="   M 90.26 53.72   L 90.25 61.67   A 0.72 0.72 0.0 0 1 88.95 62.09   L 88.14 60.97   A 0.72 0.72 0.0 0 1 88.00 60.54   L 88.04 54.79   A 0.72 0.72 0.0 0 1 88.18 54.37   L 88.95 53.29   A 0.72 0.72 0.0 0 1 90.26 53.72   Z"
     id="path60" />
  <path
     fill="#71b443"
     d="   M 71.63 54.92   L 71.61 60.16   A 0.42 0.42 0.0 0 1 71.49 60.45   L 70.22 61.75   A 0.42 0.42 0.0 0 1 69.50 61.46   L 69.49 53.72   A 0.42 0.42 0.0 0 1 70.20 53.41   L 71.49 54.60   A 0.42 0.42 0.0 0 1 71.63 54.92   Z"
     id="path62" />
  <path
     fill="#71b443"
     d="   M 78.74 60.66   Q 78.13 58.06 78.48 55.31   Q 78.58 54.47 79.18 53.86   Q 79.39 53.64 79.67 53.51   A 0.65 0.65 0.0 0 1 80.60 54.09   L 80.62 60.44   A 2.30 2.29 0.0 0 1 78.31 62.74   L 71.38 62.71   A 0.63 0.63 0.0 0 1 70.86 61.72   C 72.10 59.88 76.78 60.34 78.43 60.94   Q 78.85 61.09 78.74 60.66   Z"
     id="path64" />
  <path
     fill="#71b443"
     d="   M 63.1207 68.7916   A 4.45 4.45 0.0 0 1 56.8435 69.2416   L 47.7128 61.3323   A 4.45 4.45 0.0 0 1 47.2629 55.0551   L 47.4593 54.8284   A 4.45 4.45 0.0 0 1 53.7365 54.3784   L 62.8672 62.2877   A 4.45 4.45 0.0 0 1 63.3171 68.5649   L 63.1207 68.7916   Z"
     id="path66" />
  <path
     fill="#71b443"
     d="   M 84.72 62.06   L 83.33 64.58   Q 82.97 65.24 82.79 64.51   Q 82.35 62.65 82.85 61.30   Q 83.24 60.22 84.35 60.82   A 0.91 0.90 28.8 0 1 84.72 62.06   Z"
     id="path68" />
  <path
     fill="#71b443"
     d="   M 61.2869 81.8847   A 4.10 4.10 0.0 0 1 55.5028 82.2892   L 46.8538 74.7708   A 4.10 4.10 0.0 0 1 46.4494 68.9866   L 46.6331 68.7753   A 4.10 4.10 0.0 0 1 52.4172 68.3708   L 61.0662 75.8892   A 4.10 4.10 0.0 0 1 61.4706 81.6734   L 61.2869 81.8847   Z"
     id="path70" />
  <path
     fill="#71b443"
     d="   M 77.30 90.48   L 77.28 84.27   A 2.25 2.25 0.0 0 0 75.09 82.02   Q 69.70 81.86 64.47 80.67   A 0.63 0.63 0.0 0 1 63.98 79.95   C 64.47 76.98 62.99 75.84 61.28 73.83   Q 60.63 73.06 61.61 73.31   Q 78.90 77.67 96.95 73.51   Q 97.37 73.41 97.41 73.84   L 98.02 79.29   A 0.63 0.63 0.0 0 1 97.57 79.97   Q 91.19 81.72 84.22 82.01   A 2.30 2.30 0.0 0 0 82.01 84.30   L 82.00 90.47   Q 82.00 91.13 82.65 91.06   Q 92.54 90.02 98.02 82.38   A 0.27 0.27 0.0 0 1 98.50 82.51   L 99.67 94.38   Q 99.73 95.01 99.21 95.36   Q 93.51 99.31 86.70 100.64   Q 86.11 100.75 85.90 100.19   C 84.56 96.57 79.94 97.41 76.95 97.53   Q 74.33 97.63 73.41 100.16   A 0.73 0.72 -73.9 0 1 72.59 100.62   Q 65.22 99.20 59.07 94.71   Q 58.64 94.40 59.00 94.01   Q 63.56 89.04 58.22 85.32   A 0.15 0.15 0.0 0 1 58.25 85.06   L 61.90 83.77   A 0.51 0.50 -30.0 0 1 62.44 83.91   Q 68.01 90.20 76.70 91.03   Q 77.30 91.09 77.30 90.48   Z"
     id="path72" />
  <path
     fill="#71b443"
     d="   M 58.1460 92.0950   A 3.46 3.46 0.0 0 1 53.2636 92.4193   L 47.0938 87.0181   A 3.46 3.46 0.0 0 1 46.7695 82.1356   L 46.9540 81.9250   A 3.46 3.46 0.0 0 1 51.8364 81.6007   L 58.0062 87.0019   A 3.46 3.46 0.0 0 1 58.3305 91.8844   L 58.1460 92.0950   Z"
     id="path74" />
  <path
     fill="#71b443"
     d="   M 73.21 87.72   L 69.56 86.65   A 0.62 0.62 0.0 0 1 69.56 85.46   L 73.19 84.37   A 0.62 0.62 0.0 0 1 73.99 84.96   L 74.00 87.12   A 0.62 0.62 0.0 0 1 73.21 87.72   Z"
     id="path76" />
  <path
     fill="#71b443"
     d="   M 86.24 84.37   L 89.87 85.48   A 0.63 0.63 0.0 0 1 89.86 86.68   L 86.21 87.73   A 0.63 0.63 0.0 0 1 85.41 87.12   L 85.43 84.96   A 0.63 0.63 0.0 0 1 86.24 84.37   Z"
     id="path78" />
  <path
     fill="#71b443"
     d="   M 60.29 99.25   C 64.16 101.66 68.55 103.15 73.06 103.86   Q 73.79 103.97 73.79 104.71   L 73.77 119.74   Q 73.77 120.52 73.28 119.92   C 68.03 113.49 62.53 107.88 59.42 99.97   Q 58.76 98.29 60.29 99.25   Z"
     id="path80" />
  <path
     fill="#71b443"
     d="   M 79.32 122.00   L 76.02 127.33   Q 75.50 128.18 75.50 127.18   L 75.50 99.97   Q 75.50 99.45 76.03 99.45   L 83.49 99.43   Q 83.81 99.43 83.81 99.74   L 83.81 126.96   Q 83.81 128.10 83.20 127.13   L 80.00 122.00   Q 79.66 121.45 79.32 122.00   Z"
     id="path82" />
  <path
     fill="#71b443"
     d="   M 71.23 143.03   Q 71.16 139.24 73.32 135.44   Q 76.25 130.30 79.45 125.13   Q 79.79 124.57 80.13 125.14   Q 84.05 131.76 87.13 137.61   C 90.36 143.73 86.60 151.49 79.27 151.13   C 74.94 150.93 71.31 147.38 71.23 143.03   Z"
     id="path84" />
</svg>
