<?xml version="1.0" encoding="UTF-8" standalone="no"?>
<svg
   xmlns:dc="http://purl.org/dc/elements/1.1/"
   xmlns:cc="http://creativecommons.org/ns#"
   xmlns:rdf="http://www.w3.org/1999/02/22-rdf-syntax-ns#"
   xmlns:svg="http://www.w3.org/2000/svg"
   xmlns="http://www.w3.org/2000/svg"
   xmlns:sodipodi="http://sodipodi.sourceforge.net/DTD/sodipodi-0.dtd"
   xmlns:inkscape="http://www.inkscape.org/namespaces/inkscape"
   version="1.1"
   viewBox="0.00 0.00 158.00 164.00"
   id="svg46"
   sodipodi:docname="hypertension.svg"
   inkscape:version="1.0.1 (3bc2e813f5, 2020-09-07)">
  <metadata
     id="metadata52">
    <rdf:RDF>
      <cc:Work
         rdf:about="">
        <dc:format>image/svg+xml</dc:format>
        <dc:type
           rdf:resource="http://purl.org/dc/dcmitype/StillImage" />
      </cc:Work>
    </rdf:RDF>
  </metadata>
  <defs
     id="defs50" />
  <sodipodi:namedview
     pagecolor="#ffffff"
     bordercolor="#666666"
     borderopacity="1"
     objecttolerance="10"
     gridtolerance="10"
     guidetolerance="10"
     inkscape:pageopacity="0"
     inkscape:pageshadow="2"
     inkscape:window-width="1920"
     inkscape:window-height="1027"
     id="namedview48"
     showgrid="false"
     inkscape:zoom="5.2439024"
     inkscape:cx="79"
     inkscape:cy="82"
     inkscape:window-x="1912"
     inkscape:window-y="-8"
     inkscape:window-maximized="1"
     inkscape:current-layer="svg46" />
  <path
     fill="#71b443"
     d="   M 64.08 53.08   L 55.76 52.48   A 3.13 3.12 0.7 0 1 52.86 49.51   L 52.46 41.12   A 0.28 0.28 0.0 0 0 52.00 40.91   L 44.10 47.32   Q 43.66 47.68 43.23 47.32   L 35.60 40.93   Q 34.94 40.38 34.78 41.23   L 32.90 51.24   A 0.48 0.48 0.0 0 1 32.50 51.63   L 22.94 52.84   A 0.32 0.32 0.0 0 0 22.72 53.35   L 28.42 61.09   Q 28.73 61.52 28.38 61.91   L 21.31 69.78   A 0.63 0.63 0.0 0 0 21.49 70.76   L 23.31 71.71   Q 24.25 72.21 23.19 72.21   L 17.19 72.21   Q 16.28 72.21 16.86 71.52   L 25.08 61.80   A 0.52 0.52 0.0 0 0 25.10 61.15   L 18.08 51.85   A 1.02 1.02 0.0 0 1 18.82 50.22   L 28.22 49.54   A 3.17 3.15 1.5 0 0 31.13 46.80   L 32.56 35.96   A 0.29 0.29 0.0 0 1 33.03 35.78   L 43.03 44.05   Q 43.45 44.39 43.88 44.06   L 53.61 36.39   Q 54.29 35.85 54.36 36.72   L 55.22 47.01   A 3.51 3.49 1.3 0 0 58.27 50.19   L 69.19 51.58   A 0.30 0.29 27.0 0 1 69.36 52.09   L 65.02 56.04   Q 64.37 56.63 64.47 55.76   L 64.70 53.83   A 0.68 0.67 -84.7 0 0 64.08 53.08   Z"
     id="path28" />
  <path
     fill="#71b443"
     d="   M 54.67 71.86   L 44.85 89.03   A 3.24 3.21 0.2 0 1 43.60 90.26   C 40.86 91.73 31.75 94.84 30.90 89.50   C 26.89 64.21 58.77 52.73 72.47 74.07   A 0.53 0.53 0.0 0 0 73.33 74.12   C 84.06 60.97 102.03 57.78 112.17 73.92   Q 112.54 74.51 111.93 74.85   Q 102.70 80.09 99.69 90.29   Q 99.35 91.47 98.93 90.32   L 90.46 67.01   Q 89.62 64.71 88.78 67.00   L 72.19 112.18   Q 71.94 112.88 71.66 112.19   L 55.14 71.89   A 0.26 0.26 0.0 0 0 54.67 71.86   Z"
     id="path30" />
  <path
     fill="#71b443"
     d="   M 138.70 77.89   Q 136.11 75.67 133.76 73.43   A 0.13 0.13 0.0 0 1 133.77 73.24   L 133.99 73.08   Q 134.14 72.96 134.28 73.10   Q 136.51 75.47 138.79 77.79   Q 138.83 77.83 138.79 77.88   L 138.79 77.88   Q 138.74 77.93 138.70 77.89   Z"
     id="path32" />
  <path
     fill="#71b443"
     d="   M 140.36 93.99   A 19.03 19.03 0.0 0 1 121.33 113.02   A 19.03 19.03 0.0 0 1 102.30 93.99   A 19.03 19.03 0.0 0 1 121.33 74.96   A 19.03 19.03 0.0 0 1 140.36 93.99   Z   M 138.50 94.01   A 17.16 17.16 0.0 0 0 121.34 76.85   A 17.16 17.16 0.0 0 0 104.18 94.01   A 17.16 17.16 0.0 0 0 121.34 111.17   A 17.16 17.16 0.0 0 0 138.50 94.01   Z"
     id="path34" />
  <path
     fill="#71b443"
     d="   M 72.48 123.49   L 89.28 77.75   Q 89.59 76.88 89.90 77.75   Q 92.15 84.03 94.53 90.49   C 94.97 91.66 95.43 92.80 96.32 93.70   C 98.01 95.40 100.05 96.78 100.85 99.15   Q 102.00 102.51 103.12 105.65   Q 103.32 106.20 102.89 106.61   L 74.24 133.69   A 0.50 0.50 0.0 0 1 73.56 133.70   L 33.19 97.59   Q 32.69 97.15 33.27 96.83   Q 34.61 96.10 36.10 96.39   C 43.52 97.85 47.84 94.09 50.44 87.84   Q 51.81 84.53 53.99 81.43   A 0.37 0.36 -38.5 0 1 54.63 81.50   L 71.72 123.51   Q 72.12 124.47 72.48 123.49   Z"
     id="path38" />
  <path
     fill="#71b443"
     d="   M 129.97 90.08   Q 126.51 93.17 123.11 95.43   Q 121.65 96.40 119.98 95.72   A 1.61 1.61 0.0 0 1 119.32 93.24   C 121.34 90.66 126.70 90.30 129.77 89.68   Q 130.61 89.51 129.97 90.08   Z"
     id="path40" />
  <path
     fill="#71b443"
     d="   M 135.9383 113.0135   A 0.70 0.70 0.0 0 1 134.9526 113.1049   L 134.8449 113.0155   A 0.70 0.70 0.0 0 1 134.7535 112.0298   L 141.2817 104.1665   A 0.70 0.70 0.0 0 1 142.2674 104.0751   L 142.3751 104.1645   A 0.70 0.70 0.0 0 1 142.4665 105.1502   L 135.9383 113.0135   Z"
     id="path42" />
  <path
     fill="#71b443"
     d="   M 138.1493 116.1083   A 0.72 0.72 0.0 0 1 137.1354 116.2024   L 137.1046 116.1768   A 0.72 0.72 0.0 0 1 137.0105 115.1630   L 144.7907 105.7917   A 0.72 0.72 0.0 0 1 145.8046 105.6976   L 145.8354 105.7232   A 0.72 0.72 0.0 0 1 145.9295 106.7370   L 138.1493 116.1083   Z"
     id="path44" />
</svg>
