<?xml version="1.0" encoding="UTF-8" standalone="no"?>
<svg
   xmlns:dc="http://purl.org/dc/elements/1.1/"
   xmlns:cc="http://creativecommons.org/ns#"
   xmlns:rdf="http://www.w3.org/1999/02/22-rdf-syntax-ns#"
   xmlns:svg="http://www.w3.org/2000/svg"
   xmlns="http://www.w3.org/2000/svg"
   xmlns:sodipodi="http://sodipodi.sourceforge.net/DTD/sodipodi-0.dtd"
   xmlns:inkscape="http://www.inkscape.org/namespaces/inkscape"
   version="1.1"
   viewBox="0.00 0.00 160.00 164.00"
   id="svg42"
   sodipodi:docname="kidney-failure.svg"
   inkscape:version="1.0.1 (3bc2e813f5, 2020-09-07)">
  <metadata
     id="metadata48">
    <rdf:RDF>
      <cc:Work
         rdf:about="">
        <dc:format>image/svg+xml</dc:format>
        <dc:type
           rdf:resource="http://purl.org/dc/dcmitype/StillImage" />
        <dc:title></dc:title>
      </cc:Work>
    </rdf:RDF>
  </metadata>
  <defs
     id="defs46" />
  <sodipodi:namedview
     pagecolor="#ffffff"
     bordercolor="#666666"
     borderopacity="1"
     objecttolerance="10"
     gridtolerance="10"
     guidetolerance="10"
     inkscape:pageopacity="0"
     inkscape:pageshadow="2"
     inkscape:window-width="1920"
     inkscape:window-height="1027"
     id="namedview44"
     showgrid="false"
     inkscape:zoom="2.6219512"
     inkscape:cx="89.177401"
     inkscape:cy="123.04647"
     inkscape:window-x="1912"
     inkscape:window-y="-8"
     inkscape:window-maximized="1"
     inkscape:current-layer="svg42" />
  <circle
     fill="#71b443"
     cx="92.99"
     cy="30.99"
     r="12.48"
     id="circle26" />
  <path
     fill="#71b443"
     d="   M 77.98 55.25   L 73.82 59.50   A 1.36 1.35 35.9 0 1 72.23 59.75   C 69.51 58.36 65.68 55.86 62.57 56.49   Q 61.44 56.72 62.24 55.88   Q 67.53 50.37 74.21 43.22   C 78.37 38.77 84.67 41.82 89.22 43.57   C 92.54 44.85 96.48 44.32 99.52 42.45   C 102.97 40.34 108.34 40.38 111.37 43.27   Q 117.37 48.99 123.83 54.88   Q 124.40 55.40 123.63 55.46   Q 118.54 55.83 113.54 57.90   A 2.57 2.56 55.5 0 1 110.79 57.39   L 107.60 54.35   A 0.28 0.28 0.0 0 0 107.13 54.55   L 107.18 58.80   A 1.17 1.17 0.0 0 1 106.25 59.96   Q 103.16 60.65 100.38 61.69   C 96.67 63.07 95.22 67.39 97.84 70.49   C 100.17 73.25 103.30 72.73 106.31 71.64   Q 107.05 71.37 107.06 72.16   C 107.16 77.86 106.86 83.42 107.40 89.03   Q 109.76 113.64 111.65 138.01   C 112.46 148.42 99.59 148.94 99.05 139.74   Q 97.71 116.80 94.76 90.43   A 0.53 0.52 87.5 0 0 94.25 89.96   L 91.69 89.94   A 0.61 0.61 0.0 0 0 91.07 90.48   Q 88.43 114.38 86.94 137.76   Q 86.70 141.56 85.94 143.11   C 82.93 149.20 73.65 146.43 74.14 139.63   Q 75.70 117.75 78.09 93.93   C 78.67 88.19 78.60 82.27 78.47 76.56   Q 78.45 75.83 79.14 76.08   C 80.11 76.44 81.06 77.07 82.08 77.26   C 89.27 78.64 92.11 69.66 85.31 66.16   Q 82.74 64.84 80.12 63.63   Q 78.23 62.75 78.42 60.39   Q 78.63 57.74 78.52 55.46   Q 78.49 54.73 77.98 55.25   Z"
     id="path28" />
  <rect
     fill="#71b443"
     x="-15.48"
     y="-4.86"
     transform="translate(112.37,63.98) rotate(-16.2)"
     width="30.96"
     height="9.72"
     rx="4.72"
     id="rect30" />
  <path
     fill="#71b443"
     d="   M 67.77 70.13   Q 71.30 74.57 72.29 81.13   A 2.16 2.15 8.3 0 0 73.52 82.77   L 75.80 83.83   Q 76.76 84.27 75.83 84.76   L 73.06 86.21   Q 72.53 86.49 72.38 87.07   C 70.20 95.71 66.95 101.23 57.94 105.14   Q 57.16 105.48 57.58 106.21   L 67.26 123.04   A 1.54 1.53 75.1 0 1 65.93 125.34   L 33.48 125.33   A 1.56 1.56 0.0 0 1 31.95 124.00   Q 31.85 123.38 32.17 122.83   Q 36.98 114.46 41.80 106.29   A 0.67 0.67 0.0 0 0 41.47 105.33   Q 32.83 101.88 29.05 94.26   C 19.39 74.79 38.61 55.52 58.33 62.87   Q 58.91 63.09 58.95 62.47   Q 59.23 57.81 63.41 57.22   Q 65.09 56.98 68.76 58.81   Q 77.74 63.28 85.67 67.35   Q 89.65 69.40 87.87 73.69   Q 87.83 73.79 87.78 73.89   Q 85.59 77.97 81.60 76.20   Q 73.76 72.75 68.12 69.71   Q 66.94 69.08 67.77 70.13   Z   M 50.26 94.37   A 1.64 1.63 -5.2 0 1 51.12 95.08   L 56.01 103.52   Q 56.29 103.99 56.84 103.97   Q 57.43 103.94 57.75 103.41   Q 58.10 102.81 58.00 102.13   C 57.18 96.24 53.25 91.64 51.82 86.00   C 50.85 82.16 53.69 81.67 56.67 82.03   A 0.61 0.60 -87.6 0 0 57.35 81.40   C 57.17 77.57 55.89 72.60 61.77 72.61   C 66.62 72.62 68.77 75.81 69.17 80.26   Q 69.73 86.55 65.82 92.36   C 64.19 94.79 61.41 95.46 59.23 93.23   C 57.57 91.54 58.02 86.86 58.08 84.57   A 1.47 1.47 0.0 0 0 56.94 83.10   Q 54.94 82.66 53.31 83.28   A 0.99 0.98 83.2 0 0 52.68 84.09   C 52.36 87.08 54.21 90.54 55.76 93.08   Q 58.27 97.24 58.99 102.25   Q 59.09 102.92 59.69 102.59   C 75.71 93.73 74.25 69.99 56.77 64.14   C 31.88 55.80 16.37 89.52 39.34 102.66   A 0.59 0.59 0.0 0 0 40.22 102.20   C 40.75 95.92 45.47 91.19 46.57 84.99   Q 46.93 82.99 44.89 82.98   L 43.15 82.96   Q 41.16 82.95 41.19 84.94   C 41.24 88.50 42.23 93.96 37.17 94.55   C 31.12 95.25 24.98 74.54 36.44 72.63   C 42.11 71.68 42.91 76.80 41.92 80.90   Q 41.57 82.35 43.02 82.04   C 50.26 80.47 46.95 88.54 45.48 91.22   Q 42.45 96.74 41.18 101.94   Q 40.88 103.16 41.87 103.82   A 1.13 1.13 0.0 0 0 43.48 103.44   Q 46.05 98.89 48.43 94.96   Q 49.04 93.96 50.26 94.37   Z   M 36.44 121.77   A 0.32 0.32 0.0 0 0 36.71 122.25   L 62.72 122.30   A 0.32 0.32 0.0 0 0 63.00 121.82   L 50.03 99.37   A 0.32 0.32 0.0 0 0 49.48 99.37   L 36.44 121.77   Z"
     id="path32" />
  <path
     fill="#ffffff"
     d="   M 50.26 94.37   Q 49.04 93.96 48.43 94.96   Q 46.05 98.89 43.48 103.44   A 1.13 1.13 0.0 0 1 41.87 103.82   Q 40.88 103.16 41.18 101.94   Q 42.45 96.74 45.48 91.22   C 46.95 88.54 50.26 80.47 43.02 82.04   Q 41.57 82.35 41.92 80.90   C 42.91 76.80 42.11 71.68 36.44 72.63   C 24.98 74.54 31.12 95.25 37.17 94.55   C 42.23 93.96 41.24 88.50 41.19 84.94   Q 41.16 82.95 43.15 82.96   L 44.89 82.98   Q 46.93 82.99 46.57 84.99   C 45.47 91.19 40.75 95.92 40.22 102.20   A 0.59 0.59 0.0 0 1 39.34 102.66   C 16.37 89.52 31.88 55.80 56.77 64.14   C 74.25 69.99 75.71 93.73 59.69 102.59   Q 59.09 102.92 58.99 102.25   Q 58.27 97.24 55.76 93.08   C 54.21 90.54 52.36 87.08 52.68 84.09   A 0.99 0.98 83.2 0 1 53.31 83.28   Q 54.94 82.66 56.94 83.10   A 1.47 1.47 0.0 0 1 58.08 84.57   C 58.02 86.86 57.57 91.54 59.23 93.23   C 61.41 95.46 64.19 94.79 65.82 92.36   Q 69.73 86.55 69.17 80.26   C 68.77 75.81 66.62 72.62 61.77 72.61   C 55.89 72.60 57.17 77.57 57.35 81.40   A 0.61 0.60 -87.6 0 1 56.67 82.03   C 53.69 81.67 50.85 82.16 51.82 86.00   C 53.25 91.64 57.18 96.24 58.00 102.13   Q 58.10 102.81 57.75 103.41   Q 57.43 103.94 56.84 103.97   Q 56.29 103.99 56.01 103.52   L 51.12 95.08   A 1.64 1.63 -5.2 0 0 50.26 94.37   Z"
     id="path34" />
  <path
     fill="#ffffff"
     d="   M 36.44 121.77   L 49.48 99.37   A 0.32 0.32 0.0 0 1 50.03 99.37   L 63.00 121.82   A 0.32 0.32 0.0 0 1 62.72 122.30   L 36.71 122.25   A 0.32 0.32 0.0 0 1 36.44 121.77   Z   M 50.88 105.38   L 48.68 105.32   A 0.79 0.79 0.0 0 0 47.87 106.09   L 47.78 109.45   A 6.83 1.19 -88.4 0 0 48.78 116.31   L 50.18 116.35   A 6.83 1.19 -88.4 0 0 51.56 109.55   L 51.65 106.19   A 0.79 0.79 0.0 0 0 50.88 105.38   Z   M 49.5546 121.0887   A 2.16 1.93 92.0 0 0 51.5588 118.9974   A 2.16 1.93 92.0 0 0 49.7054 116.7713   A 2.16 1.93 92.0 0 0 47.7012 118.8626   A 2.16 1.93 92.0 0 0 49.5546 121.0887   Z"
     id="path36" />
  <path
     fill="#71b443"
     d="   M 50.88 105.38   A 0.79 0.79 0.0 0 1 51.65 106.19   L 51.56 109.55   A 6.83 1.19 -88.4 0 1 50.18 116.35   L 48.78 116.31   A 6.83 1.19 -88.4 0 1 47.78 109.45   L 47.87 106.09   A 0.79 0.79 0.0 0 1 48.68 105.32   L 50.88 105.38   Z"
     id="path38" />
  <ellipse
     fill="#71b443"
     cx="0.00"
     cy="0.00"
     transform="translate(49.63,118.93) rotate(92.0)"
     rx="2.16"
     ry="1.93"
     id="ellipse40" />
</svg>
