<?xml version="1.0" encoding="UTF-8" standalone="no"?>
<svg
   xmlns:dc="http://purl.org/dc/elements/1.1/"
   xmlns:cc="http://creativecommons.org/ns#"
   xmlns:rdf="http://www.w3.org/1999/02/22-rdf-syntax-ns#"
   xmlns:svg="http://www.w3.org/2000/svg"
   xmlns="http://www.w3.org/2000/svg"
   xmlns:sodipodi="http://sodipodi.sourceforge.net/DTD/sodipodi-0.dtd"
   xmlns:inkscape="http://www.inkscape.org/namespaces/inkscape"
   version="1.1"
   viewBox="0.00 0.00 158.00 162.00"
   id="svg78"
   sodipodi:docname="obesity.svg"
   inkscape:version="1.0.1 (3bc2e813f5, 2020-09-07)">
  <metadata
     id="metadata84">
    <rdf:RDF>
      <cc:Work
         rdf:about="">
        <dc:format>image/svg+xml</dc:format>
        <dc:type
           rdf:resource="http://purl.org/dc/dcmitype/StillImage" />
      </cc:Work>
    </rdf:RDF>
  </metadata>
  <defs
     id="defs82" />
  <sodipodi:namedview
     pagecolor="#ffffff"
     bordercolor="#666666"
     borderopacity="1"
     objecttolerance="10"
     gridtolerance="10"
     guidetolerance="10"
     inkscape:pageopacity="0"
     inkscape:pageshadow="2"
     inkscape:window-width="1920"
     inkscape:window-height="1027"
     id="namedview80"
     showgrid="false"
     inkscape:zoom="30.030214"
     inkscape:cx="78.917338"
     inkscape:cy="133.91118"
     inkscape:window-x="1912"
     inkscape:window-y="-8"
     inkscape:window-maximized="1"
     inkscape:current-layer="svg78" />
  <path
     fill="#71b443"
     d="   M 93.73 25.17   A 13.82 13.82 0.0 0 1 79.91 38.99   A 13.82 13.82 0.0 0 1 66.09 25.17   A 13.82 13.82 0.0 0 1 79.91 11.35   A 13.82 13.82 0.0 0 1 93.73 25.17   Z   M 83.97 16.46   Q 82.99 16.27 82.08 15.70   Q 81.62 15.41 81.31 15.85   Q 81.21 15.99 81.22 16.17   Q 81.25 16.74 81.71 17.11   Q 84.29 19.21 86.58 16.76   Q 86.80 16.52 86.76 16.20   Q 86.73 15.96 86.53 15.82   Q 86.13 15.52 85.70 15.76   L 84.60 16.35   A 0.96 0.92 -53.7 0 1 83.97 16.46   Z   M 80.69 20.13   Q 80.08 20.71 80.07 21.50   Q 80.06 22.37 80.81 21.93   Q 81.81 21.34 82.40 20.04   Q 82.63 19.52 82.33 19.04   Q 81.70 18.05 80.86 17.18   Q 80.70 17.02 80.48 17.03   Q 80.12 17.04 80.03 17.65   A 0.39 0.38 -57.9 0 0 80.09 17.94   L 80.81 19.04   A 0.87 0.86 51.6 0 1 80.69 20.13   Z   M 87.00 19.40   L 87.87 17.89   Q 87.98 17.70 87.93 17.48   Q 87.89 17.32 87.76 17.22   Q 87.56 17.06 87.36 17.22   L 85.87 18.41   Q 84.91 19.18 85.35 20.34   Q 85.97 21.97 87.51 22.09   A 0.46 0.45 80.1 0 0 87.96 21.44   Q 87.66 20.79 87.15 20.34   Q 86.69 19.93 87.00 19.40   Z   M 84.30 22.87   L 85.42 23.39   Q 86.82 24.03 86.16 22.64   Q 85.76 21.79 84.70 21.31   Q 82.91 20.50 81.57 22.47   Q 81.29 22.88 81.43 23.34   Q 81.65 24.11 82.30 23.64   L 83.22 22.97   Q 83.73 22.61 84.30 22.87   Z"
     id="path44" />
  <path
     fill="#71b443"
     d="   M 112.26 62.87   Q 111.91 64.75 111.82 66.54   Q 111.41 74.87 107.25 79.35   Q 105.96 80.74 105.47 82.48   Q 101.92 95.28 98.36 110.57   C 96.09 120.30 81.72 119.33 81.88 108.79   Q 82.03 98.45 81.88 88.79   Q 81.87 88.24 81.32 88.24   L 77.75 88.25   Q 77.28 88.25 77.28 88.72   Q 77.19 97.84 77.30 108.53   C 77.34 112.89 75.01 116.31 70.57 117.07   C 66.63 117.74 62.42 115.53 61.31 111.56   Q 57.29 97.18 54.44 84.35   Q 53.76 81.28 51.56 78.64   C 47.31 73.55 47.02 68.16 47.29 61.83   Q 47.34 60.77 46.62 61.55   Q 44.59 63.77 41.95 65.95   C 38.87 68.48 34.73 67.89 32.49 64.70   C 30.46 61.82 31.30 57.89 33.89 55.49   Q 46.25 44.08 55.89 33.67   A 3.74 3.73 13.3 0 1 57.64 32.59   L 64.39 30.71   A 1.82 1.82 0.0 0 1 66.52 31.66   C 68.93 36.63 73.20 39.65 78.69 40.07   Q 88.91 40.84 93.76 30.94   A 0.72 0.72 0.0 0 1 94.56 30.56   C 98.45 31.42 101.63 33.01 104.50 35.86   Q 114.69 46.01 125.16 56.86   C 131.25 63.16 121.08 71.91 115.45 65.36   Q 114.31 64.03 112.89 62.67   Q 112.39 62.20 112.26 62.87   Z"
     id="path54" />
  <path
     fill="#71b443"
     d="   M 79.96 94.76   Q 80.25 94.71 80.51 94.85   Q 81.07 95.16 80.97 95.80   Q 80.87 96.39 80.27 96.47   Q 79.51 96.56 78.80 96.36   A 0.81 0.80 29.6 0 1 78.43 95.03   Q 78.70 94.75 79.07 94.79   Q 79.51 94.84 79.96 94.76   Z"
     id="path56" />
  <path
     fill="#71b443"
     d="   M 98.60 138.93   C 100.14 138.10 100.49 136.55 100.48 134.94   Q 100.38 119.62 101.09 104.75   Q 101.21 102.05 102.00 100.21   Q 102.57 98.86 102.57 100.33   Q 102.53 117.89 102.54 135.23   C 102.54 139.54 99.44 140.99 95.64 140.97   Q 77.14 140.86 61.95 140.93   Q 55.55 140.96 55.55 134.35   Q 55.58 116.48 55.58 100.96   Q 55.58 99.86 55.96 98.80   Q 56.51 97.26 56.93 98.85   Q 57.69 101.80 57.69 104.54   Q 57.67 119.40 57.69 135.72   A 3.60 3.60 0.0 0 0 61.29 139.32   L 96.99 139.33   A 3.50 3.42 -58.3 0 0 98.60 138.93   Z"
     id="path58" />
  <path
     fill="#71b443"
     d="   M 78.23 120.56   C 80.38 119.35 82.88 123.18 81.47 124.94   C 78.72 128.36 73.32 123.30 78.23 120.56   Z"
     id="path60" />
  <path
     fill="#71b443"
     d="m 86.41,128.09 c -0.06667,-0.0867 -0.269832,-0.46638 -0.276499,-0.57305 -0.01333,-0.38 0.333166,-0.32028 0.706499,-0.38695 l 0.61,-0.1 c 0.373333,-0.0667 0.593333,-0.28333 0.66,-0.65 0.393333,-2.09333 0.02,-3.84 -1.12,-5.24 -0.34,-0.42 -0.253333,-0.55 0.26,-0.39 1.493333,0.46667 2.703333,1.34333 3.63,2.63 0.213333,0.29333 0.296667,0.62333 0.25,0.99 -0.753333,5.36667 -3.443333,8.73 -8.07,10.09 -7.153333,2.11333 -12.23,-0.06 -15.23,-6.52 -0.58,-1.26 -0.783333,-2.64 -0.61,-4.14 0.04667,-0.4 0.236667,-0.71 0.57,-0.93 1.233333,-0.83333 2.44,-1.64667 3.62,-2.44 0.1,-0.0667 0.183333,-0.05 0.25,0.05 v 0.01 c 0.08,0.12667 0.06,0.23 -0.06,0.31 -0.866667,0.55333 -1.413333,1.34667 -1.64,2.38 -0.08667,0.38 -0.04,0.74 0.14,1.08 0.193333,0.36 0.622931,0.4969 0.489598,0.8769 -0.146667,0.40667 -0.559598,1.05643 -0.439598,1.4831 0.2,0.7 0.656667,0.95667 1.37,0.77 0.38,-0.0933 0.863031,-0.11317 0.849698,0.2735 0,0.14 -0.369698,0.38983 -0.509698,0.4165 -0.14,0.0267 -0.22,0.11 -0.24,0.25 -0.08,0.60667 0.06667,1.13667 0.44,1.59 0.233333,0.27333 0.513333,0.33667 0.84,0.19 0.46,-0.2 1.256197,-0.74266 1.456197,-0.296 0.133333,0.3 -0.10953,1.156 0.203803,1.236 0.913333,0.24667 1.77,0.66 2.57,1.24 0.393333,0.28667 0.793333,0.29667 1.2,0.03 l 0.729899,-0.8862 c 0.352078,-0.22999 0.719728,0.31486 0.970101,0.6462 0.106667,0.14 0.236667,0.23667 0.39,0.29 0.36,0.12667 0.696667,0.08 1.01,-0.14 1.36,-0.95333 2.85,-1.75333 4.47,-2.4 0.708156,-0.28981 0.961468,-1.15405 0.51,-1.74 z"
     id="path62"
     sodipodi:nodetypes="cccccccccccccccccccccccsccccccccccccc" />
  <path
     fill="#71b443"
     d="   M 80.16 128.03   L 79.92 128.95   Q 79.73 129.71 79.08 129.28   Q 78.53 128.92 78.14 128.32   Q 77.63 127.54 78.57 127.54   L 79.79 127.55   A 0.39 0.38 -82.9 0 1 80.16 128.03   Z"
     id="path64" />
  <path
     fill="#71b443"
     d="   M 51.4227 133.9045   A 0.41 0.41 0.0 0 1 50.9621 134.2566   L 47.4334 133.7858   A 0.41 0.41 0.0 0 1 47.0812 133.3252   L 47.2373 132.1555   A 0.41 0.41 0.0 0 1 47.6979 131.8034   L 51.2266 132.2742   A 0.41 0.41 0.0 0 1 51.5788 132.7348   L 51.4227 133.9045   Z"
     id="path66" />
  <path
     fill="#71b443"
     d="   M 111.4179 133.3307   A 0.36 0.36 0.0 0 1 111.1059 133.7329   L 107.1573 134.2318   A 0.36 0.36 0.0 0 1 106.7550 133.9197   L 106.6021 132.7093   A 0.36 0.36 0.0 0 1 106.9141 132.3071   L 110.8627 131.8082   A 0.36 0.36 0.0 0 1 111.2650 132.1203   L 111.4179 133.3307   Z"
     id="path68" />
  <path
     fill="#71b443"
     d="   M 52.6793 139.2082   A 0.37 0.37 0.0 0 1 52.3688 139.6293   L 48.5324 140.2095   A 0.37 0.37 0.0 0 1 48.1112 139.8990   L 47.9407 138.7718   A 0.37 0.37 0.0 0 1 48.2512 138.3507   L 52.0876 137.7705   A 0.37 0.37 0.0 0 1 52.5088 138.0810   L 52.6793 139.2082   Z"
     id="path70" />
  <path
     fill="#71b443"
     d="   M 110.2451 139.7737   A 0.47 0.47 0.0 0 1 109.7020 140.1568   L 106.1151 139.5372   A 0.47 0.47 0.0 0 1 105.7319 138.9941   L 105.8749 138.1663   A 0.47 0.47 0.0 0 1 106.4180 137.7832   L 110.0049 138.4028   A 0.47 0.47 0.0 0 1 110.3881 138.9459   L 110.2451 139.7737   Z"
     id="path72" />
  <path
     fill="#71b443"
     d="   M 55.84 143.22   A 0.42 0.42 0.0 0 1 55.80 143.81   L 54.10 145.34   A 1.85 0.81 -41.8 0 1 52.18 145.97   L 51.80 145.55   A 1.85 0.81 -41.8 0 1 52.64 143.71   L 54.35 142.19   A 0.42 0.42 0.0 0 1 54.94 142.22   L 55.84 143.22   Z"
     id="path74" />
  <path
     fill="#71b443"
     d="   M 106.3670 145.8630   A 0.75 0.75 0.0 0 1 105.3099 145.9499   L 102.8694 143.8802   A 0.75 0.75 0.0 0 1 102.7825 142.8231   L 103.0930 142.4570   A 0.75 0.75 0.0 0 1 104.1501 142.3701   L 106.5906 144.4398   A 0.75 0.75 0.0 0 1 106.6775 145.4969   L 106.3670 145.8630   Z"
     id="path76" />
</svg>
