<?xml version="1.0" encoding="UTF-8" standalone="no"?>
<svg
   xmlns:dc="http://purl.org/dc/elements/1.1/"
   xmlns:cc="http://creativecommons.org/ns#"
   xmlns:rdf="http://www.w3.org/1999/02/22-rdf-syntax-ns#"
   xmlns:svg="http://www.w3.org/2000/svg"
   xmlns="http://www.w3.org/2000/svg"
   xmlns:sodipodi="http://sodipodi.sourceforge.net/DTD/sodipodi-0.dtd"
   xmlns:inkscape="http://www.inkscape.org/namespaces/inkscape"
   version="1.1"
   viewBox="0.00 0.00 160.00 164.00"
   id="svg110"
   sodipodi:docname="single-virus-pathogen.svg"
   inkscape:version="1.0.1 (3bc2e813f5, 2020-09-07)">
  <metadata
     id="metadata116">
    <rdf:RDF>
      <cc:Work
         rdf:about="">
        <dc:format>image/svg+xml</dc:format>
        <dc:type
           rdf:resource="http://purl.org/dc/dcmitype/StillImage" />
      </cc:Work>
    </rdf:RDF>
  </metadata>
  <defs
     id="defs114" />
  <sodipodi:namedview
     pagecolor="#ffffff"
     bordercolor="#666666"
     borderopacity="1"
     objecttolerance="10"
     gridtolerance="10"
     guidetolerance="10"
     inkscape:pageopacity="0"
     inkscape:pageshadow="2"
     inkscape:window-width="1920"
     inkscape:window-height="1027"
     id="namedview112"
     showgrid="false"
     inkscape:zoom="5.2439024"
     inkscape:cx="80"
     inkscape:cy="82"
     inkscape:window-x="1912"
     inkscape:window-y="-8"
     inkscape:window-maximized="1"
     inkscape:current-layer="svg110" />
  <path
     fill="#71b443"
     d="m 81.754884,120.84837 q -6.86,-0.48 -12.98,-3.52 a 0.66,0.67 28.8 0 0 -0.88,0.26 l -4.85,8.42 q -0.27,0.47 0.01,0.94 2.3,3.77 -0.71,6.75 c -3.36,3.32 -9.6,0.4 -8.73,-4.49 q 0.8,-4.43 5.57,-4.52 0.61,-0.02 0.92,-0.55 l 4.78,-8.3 q 0.3,-0.53 -0.2,-0.87 -5.73,-3.85 -9.52,-9.53 -0.34,-0.5 -0.86,-0.2 l -8.4,4.82 q -0.46,0.27 -0.48,0.8 c -0.24,9.12 -12.65,6.09 -10.15,-1.11 1.13,-3.27 4.84,-4.78 7.81,-2.81 q 0.58,0.39 1.18,0.04 l 8.31,-4.79 q 0.52,-0.3 0.25,-0.84 -3.06,-6.109998 -3.54,-12.979998 -0.04,-0.61 -0.65,-0.61 l -9.61,-0.04 q -0.54,0 -0.81,0.47 c -2.02,3.51 -6.61,4.22 -9.04,0.81 -3.43,-4.8 2.43,-10.67 7.26,-7.31 0.81,0.56 1.28,1.34 1.83,2.14 q 0.28,0.41 0.79,0.41 l 9.75,-0.04 a 0.44,0.45 2.1 0 0 0.44,-0.42 q 0.39,-6.88 3.56,-13.26 0.25,-0.5 -0.24,-0.78 l -8.38,-4.84 q -0.55,-0.32 -1.09,0.02 c -4.23,2.63 -9.1,-0.97 -7.87,-5.78 1.51,-5.94 10.23,-4.64 10.23,1.85 a 1.04,1.02 15.3 0 0 0.52,0.89 l 8.45,4.86 a 0.51,0.51 0 0 0 0.68,-0.16 q 3.76,-5.71 9.58,-9.62 0.51,-0.35 0.2,-0.89 l -4.75,-8.29 q -0.3,-0.53 -0.91,-0.53 c -5.26,0.02 -7.68,-5.81 -3.7,-9.29 4.43,-3.87 10.88,1.87 7.58,7.04 q -0.31,0.48 -0.02,0.98 l 4.89,8.46 a 0.53,0.53 0 0 0 0.69,0.2 q 6.27,-3.1 13.2,-3.58 0.53,-0.04 0.53,-0.57 l 0.01,-9.66 q 0,-0.64 -0.56,-0.94 c -3.32,-1.78 -3.97,-5.91 -1.22,-8.5 5.45,-5.16 13.16,4.24 5.77,8.55 q -0.48,0.28 -0.48,0.84 v 9.55 a 0.7,0.7 0 0 0 0.65,0.7 q 6.87,0.52 13,3.56 0.529996,0.26 0.829996,-0.25 l 4.71,-8.15 q 0.32,-0.54 0.09,-1.12 c -0.93,-2.37 -1.48,-4.24 0.29,-6.32 3.06,-3.59 8.71,-2.05 9.24,2.73 0.37,3.32 -2.3,5.92 -5.59,5.77 q -0.58,-0.02 -0.87,0.48 l -4.85,8.37 q -0.3,0.53 0.2,0.86 5.68,3.8 9.68,9.73 a 0.42,0.42 0 0 0 0.55,0.12 l 8.49,-4.91 q 0.5,-0.28 0.51,-0.85 c 0.09,-3.5 2.41,-6.13 6.06,-5.6 7.78,1.15 4.39,13.76 -3.76,9.48 q -0.53,-0.28 -1.05,0.02 l -8.31,4.77 q -0.52,0.3 -0.26,0.84 3.06,6.15 3.55,13.01 0.05,0.66 0.72,0.66 h 9.51 q 0.54,0 0.83,-0.46 c 4.18,-6.89 13.1,-0.61 9.09,5.14 -2.37,3.39 -7.05,2.93 -9.02,-0.65 q -0.28,-0.52 -0.87,-0.52 h -9.57 q -0.64,0 -0.69,0.64 -0.57,6.89 -3.54,12.959998 a 0.68,0.68 0 0 0 0.27,0.89 l 8.32,4.78 q 0.59,0.34 1.16,-0.05 c 2.97,-2.05 6.93,-0.35 7.86,3 2.02,7.29 -10.08,9.69 -10.29,0.92 q -0.02,-0.56 -0.51,-0.84 l -8.29,-4.79 q -0.55,-0.31 -0.91,0.21 -3.9,5.77 -9.63,9.57 a 0.53,0.53 0 0 0 -0.16,0.71 l 4.89,8.46 q 0.31,0.54 0.94,0.53 c 4.55,-0.1 7.28,4.68 4.47,8.37 -3.93,5.15 -11.95,-0.04 -8.45,-6.13 a 1.08,1.08 0 0 0 0,-1.08 l -4.77,-8.23 q -0.35,-0.6 -0.969996,-0.29 -6.28,3.09 -12.93,3.47 -0.63,0.03 -0.63,0.67 l -0.02,9.58 q 0,0.69 0.62,1.01 c 4.29,2.21 3.65,8.01 -0.75,9.56 -5.93,2.09 -9.77,-6.54 -3.95,-9.58 a 1.1,1.1 0 0 0 0.58,-0.97 v -9.59 q 0,-0.63 -0.63,-0.67 z m 4.14,-85.639998 a 1.71,1.71 0 0 0 -1.71,-1.71 1.71,1.71 0 0 0 -1.71,1.71 1.71,1.71 0 0 0 1.71,1.71 1.71,1.71 0 0 0 1.71,-1.71 z m -25.39,6.8 a 1.71,1.71 0 0 0 -1.71,-1.71 1.71,1.71 0 0 0 -1.71,1.71 1.71,1.71 0 0 0 1.71,1.71 1.71,1.71 0 0 0 1.71,-1.71 z m 50.739996,-0.02 a 1.71,1.71 0 0 0 -1.71,-1.71 1.71,1.71 0 0 0 -1.71,1.71 1.71,1.71 0 0 0 1.71,1.71 1.71,1.71 0 0 0 1.71,-1.71 z m -69.319996,18.59 a 1.71,1.71 0 0 0 -1.71,-1.71 1.71,1.71 0 0 0 -1.71,1.71 1.71,1.71 0 0 0 1.71,1.71 1.71,1.71 0 0 0 1.71,-1.71 z m 87.899996,0 a 1.71,1.71 0 0 0 -1.71,-1.71 1.71,1.71 0 0 0 -1.71,1.71 1.71,1.71 0 0 0 1.71,1.71 1.71,1.71 0 0 0 1.71,-1.71 z m -35.179996,6.13 a 5.22,5.22 0 0 0 -5.22,-5.22 5.22,5.22 0 0 0 -5.22,5.22 5.22,5.22 0 0 0 5.22,5.22 5.22,5.22 0 0 0 5.22,-5.22 z m -22.76,1.74 a 1.71,1.71 0 0 0 -1.71,-1.71 1.71,1.71 0 0 0 -1.71,1.71 1.71,1.71 0 0 0 1.71,1.71 1.71,1.71 0 0 0 1.71,-1.71 z m 33.249996,5.24 a 1.71,1.71 0 0 0 -1.71,-1.71 1.71,1.71 0 0 0 -1.71,1.71 1.71,1.71 0 0 0 1.71,1.71 1.71,1.71 0 0 0 1.71,-1.71 z m -43.749996,7.03 a 1.72,1.72 0 0 0 -1.72,-1.72 1.72,1.72 0 0 0 -1.72,1.72 1.72,1.72 0 0 0 1.72,1.72 1.72,1.72 0 0 0 1.72,-1.72 z m 13.99,1.73 a 1.71,1.71 0 0 0 -1.71,-1.71 1.71,1.71 0 0 0 -1.71,1.71 1.71,1.71 0 0 0 1.71,1.71 1.71,1.71 0 0 0 1.71,-1.71 z m 19.27,0 a 1.72,1.72 0 0 0 -1.72,-1.72 1.72,1.72 0 0 0 -1.72,1.72 1.72,1.72 0 0 0 1.72,1.72 1.72,1.72 0 0 0 1.72,-1.72 z m -59.51,3.51 a 1.72,1.72 0 0 0 -1.72,-1.72 1.72,1.72 0 0 0 -1.72,1.72 1.72,1.72 0 0 0 1.72,1.72 1.72,1.72 0 0 0 1.72,-1.72 z m 52.5,3.5 a 5.22,5.22 0 0 0 -5.22,-5.22 5.22,5.22 0 0 0 -5.22,5.22 5.22,5.22 0 0 0 5.22,5.22 5.22,5.22 0 0 0 5.22,-5.22 z m 17.509996,-3.51 a 1.72,1.72 0 0 0 -1.72,-1.72 1.72,1.72 0 0 0 -1.72,1.72 1.72,1.72 0 0 0 1.72,1.72 1.72,1.72 0 0 0 1.72,-1.72 z m 31.5,0 a 1.73,1.73 0 0 0 -1.73,-1.73 1.73,1.73 0 0 0 -1.73,1.73 1.73,1.73 0 0 0 1.73,1.73 1.73,1.73 0 0 0 1.73,-1.73 z m -68.259996,8.75 a 5.22,5.22 0 0 0 -5.22,-5.22 5.22,5.22 0 0 0 -5.22,5.22 5.22,5.22 0 0 0 5.22,5.22 5.22,5.22 0 0 0 5.22,-5.22 z m 36.759996,5.26 a 5.22,5.22 0 0 0 -5.219996,-5.22 5.22,5.22 0 0 0 -5.22,5.22 5.22,5.22 0 0 0 5.22,5.219998 5.22,5.22 0 0 0 5.219996,-5.219998 z m -26.249996,5.239998 a 1.72,1.72 0 0 0 -1.72,-1.72 1.72,1.72 0 0 0 -1.72,1.72 1.72,1.72 0 0 0 1.72,1.72 1.72,1.72 0 0 0 1.72,-1.72 z m -36.94,6.11 a 1.71,1.71 0 0 0 -1.71,-1.71 1.71,1.71 0 0 0 -1.71,1.71 1.71,1.71 0 0 0 1.71,1.71 1.71,1.71 0 0 0 1.71,-1.71 z m 87.879996,0.01 a 1.71,1.71 0 0 0 -1.71,-1.71 1.71,1.71 0 0 0 -1.71,1.71 1.71,1.71 0 0 0 1.71,1.71 1.71,1.71 0 0 0 1.71,-1.71 z m -38.689996,0.88 a 1.72,1.72 0 0 0 -1.72,-1.72 1.72,1.72 0 0 0 -1.72,1.72 1.72,1.72 0 0 0 1.72,1.72 1.72,1.72 0 0 0 1.72,-1.72 z m 20.099996,17.69 a 1.71,1.71 0 0 0 -1.71,-1.71 1.71,1.71 0 0 0 -1.71,1.71 1.71,1.71 0 0 0 1.71,1.71 1.71,1.71 0 0 0 1.71,-1.71 z m -50.739996,0.03 a 1.71,1.71 0 0 0 -1.71,-1.71 1.71,1.71 0 0 0 -1.71,1.71 1.71,1.71 0 0 0 1.71,1.71 1.71,1.71 0 0 0 1.71,-1.71 z m 25.38,6.78 a 1.72,1.72 0 0 0 -1.72,-1.72 1.72,1.72 0 0 0 -1.72,1.72 1.72,1.72 0 0 0 1.72,1.72 1.72,1.72 0 0 0 1.72,-1.72 z"
     id="path60" />
</svg>
