<?xml version="1.0" encoding="UTF-8" standalone="no"?>
<svg
   xmlns:dc="http://purl.org/dc/elements/1.1/"
   xmlns:cc="http://creativecommons.org/ns#"
   xmlns:rdf="http://www.w3.org/1999/02/22-rdf-syntax-ns#"
   xmlns:svg="http://www.w3.org/2000/svg"
   xmlns="http://www.w3.org/2000/svg"
   xmlns:sodipodi="http://sodipodi.sourceforge.net/DTD/sodipodi-0.dtd"
   xmlns:inkscape="http://www.inkscape.org/namespaces/inkscape"
   version="1.1"
   viewBox="0.00 0.00 160.00 164.00"
   id="svg58"
   sodipodi:docname="urinary-tract-function.svg"
   inkscape:version="1.0.1 (3bc2e813f5, 2020-09-07)">
  <metadata
     id="metadata64">
    <rdf:RDF>
      <cc:Work
         rdf:about="">
        <dc:format>image/svg+xml</dc:format>
        <dc:type
           rdf:resource="http://purl.org/dc/dcmitype/StillImage" />
      </cc:Work>
    </rdf:RDF>
  </metadata>
  <defs
     id="defs62" />
  <sodipodi:namedview
     pagecolor="#ffffff"
     bordercolor="#666666"
     borderopacity="1"
     objecttolerance="10"
     gridtolerance="10"
     guidetolerance="10"
     inkscape:pageopacity="0"
     inkscape:pageshadow="2"
     inkscape:window-width="1920"
     inkscape:window-height="1027"
     id="namedview60"
     showgrid="false"
     inkscape:zoom="5.2439024"
     inkscape:cx="80"
     inkscape:cy="82"
     inkscape:window-x="1912"
     inkscape:window-y="-8"
     inkscape:window-maximized="1"
     inkscape:current-layer="svg58" />
  <path
     fill="#71b443"
     d="   M 91.01 26.98   C 90.66 24.50 91.95 21.06 94.57 20.66   Q 96.09 20.42 96.53 21.93   Q 96.69 22.51 96.27 22.94   Q 94.88 24.34 94.01 25.93   Q 93.26 27.30 91.62 27.47   Q 91.08 27.52 91.01 26.98   Z"
     id="path34" />
  <path
     fill="#71b443"
     d="   M 105.37 25.29   Q 108.03 25.91 107.35 28.82   A 0.90 0.90 0.0 0 1 106.47 29.52   L 97.78 29.57   Q 96.99 29.57 97.46 28.94   Q 100.95 24.25 105.37 25.29   Z"
     id="path36" />
  <path
     fill="#71b443"
     d="   M 90.63 38.48   A 12.38 12.38 0.0 0 1 78.25 50.86   A 12.38 12.38 0.0 0 1 65.87 38.48   A 12.38 12.38 0.0 0 1 78.25 26.10   A 12.38 12.38 0.0 0 1 90.63 38.48   Z   M 84.19 40.20   C 80.97 39.01 76.14 39.45 73.69 42.33   A 1.18 1.18 0.0 0 0 74.81 44.25   Q 80.67 43.15 85.76 44.57   Q 87.33 45.01 87.43 43.38   Q 87.45 42.90 87.18 42.50   Q 86.10 40.91 84.19 40.20   Z"
     id="path38" />
  <path
     fill="#71b443"
     d="   M 97.16 36.98   A 0.74 0.74 0.0 0 1 96.57 36.40   Q 96.39 35.51 97.22 35.21   Q 99.45 34.42 102.12 34.84   Q 103.63 35.07 103.54 36.60   L 103.52 37.07   A 0.94 0.94 0.0 0 1 102.42 37.94   L 97.16 36.98   Z"
     id="path40" />
  <path
     fill="#71b443"
     d="   M 44.09 135.66   C 39.57 135.45 34.97 133.29 35.73 127.91   Q 37.12 118.13 41.00 99.82   C 41.61 96.90 40.58 94.43 38.84 92.17   Q 33.00 84.60 27.61 77.32   A 5.36 5.29 -64.1 0 1 26.56 74.23   C 26.49 69.78 26.28 65.14 29.27 61.45   Q 31.72 58.42 32.37 57.20   Q 35.17 51.97 37.47 49.02   Q 39.41 46.53 45.62 40.63   Q 50.18 36.31 56.95 37.20   C 64.95 38.26 65.80 46.72 61.64 52.09   Q 57.30 57.69 52.04 64.30   Q 51.35 65.17 50.91 64.15   L 49.19 60.08   A 1.82 1.82 0.0 0 1 49.80 57.89   Q 54.84 54.22 59.05 50.81   C 65.36 45.69 58.27 36.93 51.78 42.09   Q 45.22 47.30 38.60 52.03   C 36.15 53.78 35.57 56.47 36.49 59.31   C 40.35 71.16 48.83 80.22 55.99 89.95   C 57.29 91.71 57.38 93.96 56.98 96.04   Q 53.73 112.64 50.73 129.04   C 50.32 131.28 49.06 132.75 47.45 134.35   Q 46.04 135.75 44.09 135.66   Z"
     id="path42" />
  <path
     fill="#71b443"
     d="   M 52.39 82.70   C 49.09 78.61 32.84 58.50 38.69 53.73   Q 45.39 48.25 52.82 43.03   C 58.09 39.33 62.77 46.05 58.45 49.55   Q 54.13 53.04 49.15 56.83   Q 46.79 58.63 48.32 61.88   Q 52.47 70.72 54.91 78.17   Q 55.81 80.92 53.51 82.81   A 0.80 0.79 -39.2 0 1 52.39 82.70   Z"
     id="path46" />
  <path
     fill="#71b443"
     d="   M 70.32 116.72   C 66.77 115.53 60.97 113.15 60.19 108.80   Q 59.65 105.77 59.88 103.02   A 1.40 1.39 2.5 0 1 61.27 101.75   Q 79.56 101.78 95.79 101.74   Q 100.61 101.73 100.60 96.77   Q 100.60 88.79 100.70 81.87   A 2.83 2.82 0.2 0 1 103.51 79.09   L 117.96 79.00   A 3.46 3.45 89.8 0 1 121.44 82.46   L 121.46 134.27   Q 121.46 134.49 121.23 134.49   L 76.99 134.67   Q 75.03 134.68 74.64 132.75   L 71.70 118.30   A 2.12 2.10 -86.4 0 0 70.32 116.72   Z"
     id="path48" />
  <path
     fill="#71b443"
     d="   M 63.5512 85.6449   A 2.04 0.65 40.5 0 1 61.5779 84.8143   A 2.04 0.65 40.5 0 1 60.4488 82.9951   A 2.04 0.65 40.5 0 1 62.4221 83.8257   A 2.04 0.65 40.5 0 1 63.5512 85.6449   Z"
     id="path50" />
  <path
     fill="#71b443"
     d="   M 67.0214 90.1382   A 2.00 0.70 54.5 0 1 65.2901 88.9165   A 2.00 0.70 54.5 0 1 64.6986 86.8818   A 2.00 0.70 54.5 0 1 66.4299 88.1035   A 2.00 0.70 54.5 0 1 67.0214 90.1382   Z"
     id="path52" />
  <path
     fill="#71b443"
     d="   M 67.77 93.45   Q 67.46 92.81 67.59 92.09   Q 67.73 91.28 68.29 91.88   Q 69.35 93.01 69.41 94.76   Q 69.43 95.47 68.79 95.15   C 68.01 94.77 68.10 94.12 67.77 93.45   Z"
     id="path54" />
  <path
     fill="#71b443"
     d="   M 68.91 99.33   Q 68.70 98.54 68.77 97.76   A 0.68 0.67 -54.6 0 1 70.06 97.54   Q 70.47 98.46 70.16 99.37   A 0.65 0.65 0.0 0 1 68.91 99.33   Z"
     id="path56" />
</svg>
