<?xml version="1.0" encoding="UTF-8" standalone="no"?>
<svg
   xmlns:dc="http://purl.org/dc/elements/1.1/"
   xmlns:cc="http://creativecommons.org/ns#"
   xmlns:rdf="http://www.w3.org/1999/02/22-rdf-syntax-ns#"
   xmlns:svg="http://www.w3.org/2000/svg"
   xmlns="http://www.w3.org/2000/svg"
   xmlns:sodipodi="http://sodipodi.sourceforge.net/DTD/sodipodi-0.dtd"
   xmlns:inkscape="http://www.inkscape.org/namespaces/inkscape"
   version="1.1"
   viewBox="0.00 0.00 160.00 164.00"
   id="svg82"
   sodipodi:docname="urinary-tract-infections.svg"
   inkscape:version="1.0.1 (3bc2e813f5, 2020-09-07)">
  <metadata
     id="metadata88">
    <rdf:RDF>
      <cc:Work
         rdf:about="">
        <dc:format>image/svg+xml</dc:format>
        <dc:type
           rdf:resource="http://purl.org/dc/dcmitype/StillImage" />
      </cc:Work>
    </rdf:RDF>
  </metadata>
  <defs
     id="defs86" />
  <sodipodi:namedview
     pagecolor="#ffffff"
     bordercolor="#666666"
     borderopacity="1"
     objecttolerance="10"
     gridtolerance="10"
     guidetolerance="10"
     inkscape:pageopacity="0"
     inkscape:pageshadow="2"
     inkscape:window-width="1920"
     inkscape:window-height="1027"
     id="namedview84"
     showgrid="false"
     inkscape:zoom="5.2439024"
     inkscape:cx="80"
     inkscape:cy="82"
     inkscape:window-x="1912"
     inkscape:window-y="-8"
     inkscape:window-maximized="1"
     inkscape:current-layer="svg82" />
  <path
     fill="#71b443"
     d="   M 60.24 22.04   L 59.89 27.29   A 0.32 0.31 -76.3 0 1 59.45 27.56   L 53.73 25.02   Q 52.86 24.63 53.24 25.51   L 55.35 30.38   A 0.44 0.43 75.2 0 1 55.00 30.99   L 49.21 31.61   Q 48.18 31.72 49.03 32.31   L 53.89 35.64   Q 54.43 36.01 53.90 36.40   L 50.51 38.93   Q 49.60 39.61 50.71 39.82   L 54.04 40.44   Q 54.72 40.57 54.33 41.15   L 51.60 45.26   Q 51.13 45.96 51.95 45.76   L 56.16 44.70   Q 56.62 44.58 56.61 45.06   Q 56.61 45.25 56.57 45.44   Q 56.51 45.69 56.29 45.80   Q 52.48 47.69 49.01 48.41   Q 47.16 48.79 48.24 47.24   L 51.73 42.25   A 0.42 0.42 0.0 0 0 51.47 41.60   L 46.57 40.64   A 0.52 0.51 33.5 0 1 46.38 39.71   L 51.24 36.42   Q 51.68 36.12 51.24 35.82   L 44.98 31.46   Q 43.53 30.45 45.29 30.30   L 52.77 29.68   A 0.34 0.33 -13.3 0 0 53.06 29.22   L 50.32 22.59   A 0.49 0.49 0.0 0 1 50.97 21.96   L 57.51 24.95   Q 58.25 25.29 58.34 24.48   L 59.02 18.60   Q 59.18 17.21 60.03 18.32   L 64.83 24.59   Q 65.30 25.20 65.79 24.61   L 68.45 21.45   A 0.62 0.61 -35.0 0 1 69.50 21.63   Q 70.73 25.03 69.86 28.12   Q 69.52 29.30 69.20 28.12   Q 68.76 26.52 68.57 24.88   Q 68.48 24.05 67.91 24.67   L 65.60 27.21   Q 65.15 27.71 64.75 27.17   L 60.81 21.87   Q 60.30 21.18 60.24 22.04   Z"
     id="path46" />
  <path
     fill="#71b443"
     d="   M 86.91 26.73   Q 86.69 24.98 87.28 23.40   A 3.33 3.31 73.4 0 1 87.71 22.60   Q 89.03 20.79 91.14 21.10   Q 92.30 21.28 91.79 22.34   Q 90.54 24.93 87.53 27.01   Q 87.00 27.37 86.91 26.73   Z"
     id="path48" />
  <path
     fill="#71b443"
     d="   M 100.72 25.20   Q 102.75 25.57 102.83 27.70   Q 102.89 29.23 101.36 29.24   L 93.31 29.30   Q 92.52 29.31 93.00 28.68   Q 96.34 24.39 100.72 25.20   Z"
     id="path50" />
  <path
     fill="#71b443"
     d="   M 86.78 44.54   A 11.52 11.52 0.0 0 1 75.26 56.06   A 11.52 11.52 0.0 0 1 63.74 44.54   A 11.52 11.52 0.0 0 1 75.26 33.02   A 11.52 11.52 0.0 0 1 86.78 44.54   Z   M 77.45 47.09   C 74.36 44.78 71.61 44.22 67.97 46.64   Q 67.16 47.18 67.01 48.11   A 0.72 0.71 11.7 0 0 67.55 48.92   Q 71.97 49.99 76.47 50.01   Q 81.40 50.03 77.45 47.09   Z"
     id="path52" />
  <path
     fill="#71b443"
     d="   M 93.26 35.18   Q 97.28 33.00 98.82 35.77   A 1.08 1.07 -8.9 0 1 97.67 37.34   L 93.46 36.52   Q 91.50 36.14 93.26 35.18   Z"
     id="path54" />
  <path
     fill="#71b443"
     d="   M 92.28 65.30   C 91.99 67.73 93.33 69.55 95.20 70.95   Q 96.68 72.07 94.83 71.97   Q 88.58 71.64 86.90 66.53   Q 86.16 64.29 86.85 57.98   Q 87.43 52.61 87.89 46.54   A 0.62 0.61 -73.0 0 1 88.80 46.05   C 96.88 50.58 93.13 58.27 92.28 65.30   Z"
     id="path58" />
  <path
     fill="#71b443"
     d="   M 53.75 67.18   A 13.59 13.59 0.0 0 1 40.16 80.77   A 13.59 13.59 0.0 0 1 26.57 67.18   A 13.59 13.59 0.0 0 1 40.16 53.59   A 13.59 13.59 0.0 0 1 53.75 67.18   Z   M 51.82 67.16   A 11.65 11.65 0.0 0 0 40.17 55.51   A 11.65 11.65 0.0 0 0 28.52 67.16   A 11.65 11.65 0.0 0 0 40.17 78.81   A 11.65 11.65 0.0 0 0 51.82 67.16   Z"
     id="path60" />
  <path
     fill="#71b443"
     d="   M 78.46 93.83   L 73.96 81.98   A 2.46 2.46 0.0 0 1 74.28 79.64   Q 77.17 75.72 80.08 71.32   C 83.89 65.57 76.39 60.51 72.53 65.68   Q 69.71 69.47 67.01 73.41   A 0.48 0.48 0.0 0 1 66.17 73.32   C 63.83 67.37 71.32 67.48 71.75 62.39   C 72.38 55.03 84.49 57.20 85.02 63.89   C 85.20 66.19 86.49 67.94 86.75 70.24   Q 87.04 72.75 87.36 75.14   C 88.06 80.28 90.70 85.32 93.93 89.44   C 97.72 94.27 99.27 99.75 92.55 103.38   Q 88.35 105.65 83.03 105.72   Q 74.79 105.82 67.65 105.66   A 2.51 2.51 0.0 0 0 65.17 107.55   Q 61.90 120.41 58.63 132.65   C 56.46 140.81 45.57 138.56 47.79 129.89   Q 51.38 115.90 55.51 100.17   Q 55.68 99.55 56.30 99.69   C 62.28 101.00 61.39 94.43 66.19 94.48   Q 71.92 94.54 77.97 94.54   Q 78.72 94.53 78.46 93.83   Z"
     id="path64" />
  <path
     fill="#71b443"
     d="   M 43.14 65.21   Q 43.73 66.51 43.89 65.10   Q 43.98 64.29 43.90 63.45   Q 43.72 61.38 45.23 62.81   C 49.60 66.97 48.28 74.89 41.50 75.50   C 35.23 76.08 30.11 69.61 34.30 63.96   A 0.42 0.42 0.0 0 1 35.06 64.15   Q 35.23 65.40 35.98 66.30   A 1.08 1.08 0.0 0 0 37.89 65.71   L 38.39 59.71   Q 38.43 59.24 38.89 59.28   C 40.88 59.46 42.39 63.56 43.14 65.21   Z   M 38.53 69.20   Q 38.21 68.93 38.00 68.53   A 0.50 0.50 0.0 0 0 37.12 68.53   Q 35.52 71.70 37.80 73.73   C 42.10 77.57 47.73 72.10 43.73 67.93   A 0.46 0.45 26.9 0 0 42.95 68.18   Q 42.92 68.38 42.78 68.53   Q 42.44 68.88 42.21 68.46   L 40.69 65.60   Q 40.33 64.94 40.13 65.66   L 39.21 68.98   Q 39.03 69.62 38.53 69.20   Z"
     id="path66" />
  <path
     fill="#71b443"
     d="   M 60.6483 96.9947   A 3.42 3.42 0.0 0 1 55.8866 97.8429   L 55.7882 97.7742   A 3.42 3.42 0.0 0 1 54.9400 93.0126   L 73.4317 66.5053   A 3.42 3.42 0.0 0 1 78.1934 65.6571   L 78.2918 65.7258   A 3.42 3.42 0.0 0 1 79.1400 70.4874   L 60.6483 96.9947   Z"
     id="path68" />
  <path
     fill="#71b443"
     d="   M 59.80 81.52   Q 56.21 80.53 53.65 77.35   Q 52.42 75.81 54.05 76.92   L 60.04 81.01   Q 61.48 81.98 59.80 81.52   Z"
     id="path72" />
  <path
     fill="#71b443"
     d="   M 96.61 83.53   C 96.95 80.96 96.04 79.31 93.93 77.94   Q 93.25 77.51 94.05 77.62   C 96.96 78.06 98.06 81.12 97.02 83.64   Q 96.40 85.13 96.61 83.53   Z"
     id="path74" />
  <path
     fill="#71b443"
     d="   M 94.27 83.47   L 92.64 80.17   Q 91.90 78.68 93.24 79.66   Q 94.91 80.89 94.87 83.34   Q 94.85 84.66 94.27 83.47   Z"
     id="path76" />
  <path
     fill="#71b443"
     d="   M 71.79 122.15   C 69.16 120.70 63.76 120.62 64.84 116.01   Q 65.84 111.74 66.86 107.96   Q 67.01 107.41 67.57 107.42   Q 80.67 107.44 96.34 107.41   Q 101.15 107.40 101.13 102.63   Q 101.10 95.51 101.21 88.25   A 2.84 2.84 0.0 0 1 104.03 85.45   L 118.18 85.38   A 3.30 3.29 89.8 0 1 121.49 88.68   L 121.49 138.97   A 0.47 0.46 -90.0 0 1 121.03 139.44   L 76.91 139.43   Q 76.37 139.43 76.26 138.91   L 72.94 123.69   A 2.32 2.30 8.5 0 0 71.79 122.15   Z"
     id="path78" />
  <path
     fill="#71b443"
     d="   M 74.35 92.31   A 0.27 0.27 0.0 0 1 73.98 92.37   L 73.83 92.26   A 6.71 0.85 36.7 0 1 68.96 87.57   L 69.02 87.49   A 6.71 0.85 36.7 0 1 74.91 90.82   L 75.05 90.93   A 0.27 0.27 0.0 0 1 75.11 91.30   L 74.35 92.31   Z"
     id="path80" />
</svg>
