<svg width="160" height="164" viewBox="0 0 160 164" fill="none" xmlns="http://www.w3.org/2000/svg">
<path d="M91.01 26.98C90.66 24.5 91.95 21.06 94.57 20.66C95.5833 20.5 96.2367 20.9233 96.53 21.93C96.6367 22.3167 96.55 22.6533 96.27 22.94C95.3433 23.8733 94.59 24.87 94.01 25.93C93.51 26.8433 92.7133 27.3567 91.62 27.47C91.26 27.5033 91.0567 27.34 91.01 26.98Z" fill="white"/>
<path d="M105.37 25.29C107.143 25.7033 107.803 26.88 107.35 28.82C107.305 29.0192 107.193 29.1971 107.033 29.3243C106.873 29.4516 106.674 29.5206 106.47 29.52L97.78 29.57C97.2533 29.57 97.1467 29.36 97.46 28.94C99.7867 25.8133 102.423 24.5967 105.37 25.29Z" fill="white"/>
<path d="M90.63 38.48C90.63 40.1058 90.3098 41.7156 89.6876 43.2176C89.0655 44.7196 88.1536 46.0844 87.004 47.234C85.8544 48.3836 84.4896 49.2955 82.9876 49.9176C81.4856 50.5398 79.8758 50.86 78.25 50.86C74.9666 50.86 71.8177 49.5557 69.496 47.234C67.1743 44.9123 65.87 41.7634 65.87 38.48C65.87 35.1966 67.1743 32.0477 69.496 29.726C71.8177 27.4043 74.9666 26.1 78.25 26.1C81.5334 26.1 84.6823 27.4043 87.004 29.726C89.3257 32.0477 90.63 35.1966 90.63 38.48ZM84.19 40.2C80.97 39.01 76.14 39.45 73.69 42.33C73.5332 42.5162 73.4377 42.7463 73.4168 42.9889C73.3959 43.2314 73.4506 43.4745 73.5732 43.6848C73.6959 43.8951 73.8806 44.0623 74.102 44.1635C74.3234 44.2647 74.5707 44.2949 74.81 44.25C78.7167 43.5167 82.3667 43.6233 85.76 44.57C86.8067 44.8633 87.3633 44.4667 87.43 43.38C87.4433 43.06 87.36 42.7667 87.18 42.5C86.46 41.44 85.4633 40.6733 84.19 40.2Z" fill="white"/>
<path d="M97.16 36.98C97.0151 36.9531 96.8815 36.8835 96.7764 36.7802C96.6713 36.6768 96.5994 36.5444 96.57 36.4C96.45 35.8067 96.6667 35.41 97.22 35.21C98.7067 34.6833 100.34 34.56 102.12 34.84C103.127 34.9933 103.6 35.58 103.54 36.6L103.52 37.07C103.512 37.2022 103.476 37.3312 103.415 37.4486C103.354 37.566 103.269 37.6691 103.165 37.7513C103.061 37.8334 102.941 37.8927 102.813 37.9252C102.684 37.9577 102.55 37.9628 102.42 37.94L97.16 36.98Z" fill="white"/>
<path d="M44.09 135.66C39.57 135.45 34.97 133.29 35.73 127.91C36.6567 121.39 38.4133 112.027 41 99.82C41.61 96.9 40.58 94.43 38.84 92.17C34.9467 87.1233 31.2033 82.1733 27.61 77.32C26.9467 76.4295 26.5794 75.3488 26.56 74.23C26.49 69.78 26.28 65.14 29.27 61.45C30.9033 59.43 31.9367 58.0133 32.37 57.2C34.2367 53.7133 35.9367 50.9867 37.47 49.02C38.7633 47.36 41.48 44.5633 45.62 40.63C48.66 37.75 52.4367 36.6067 56.95 37.2C64.95 38.26 65.8 46.72 61.64 52.09C58.7467 55.8233 55.5467 59.8933 52.04 64.3C51.58 64.88 51.2033 64.83 50.91 64.15L49.19 60.08C49.028 59.6999 49.0001 59.2761 49.111 58.8781C49.2219 58.48 49.4648 58.1316 49.8 57.89C53.16 55.4433 56.2433 53.0833 59.05 50.81C65.36 45.69 58.27 36.93 51.78 42.09C47.4067 45.5633 43.0133 48.8767 38.6 52.03C36.15 53.78 35.57 56.47 36.49 59.31C40.35 71.16 48.83 80.22 55.99 89.95C57.29 91.71 57.38 93.96 56.98 96.04C54.8133 107.107 52.73 118.107 50.73 129.04C50.32 131.28 49.06 132.75 47.45 134.35C46.51 135.283 45.39 135.72 44.09 135.66Z" fill="white"/>
<path d="M52.39 82.7C49.09 78.61 32.84 58.5 38.69 53.73C43.1567 50.0767 47.8667 46.51 52.82 43.03C58.09 39.33 62.77 46.05 58.45 49.55C55.57 51.8767 52.47 54.3033 49.15 56.83C47.5767 58.03 47.3 59.7133 48.32 61.88C51.0867 67.7733 53.2833 73.2033 54.91 78.17C55.51 80.0033 55.0433 81.55 53.51 82.81C53.4284 82.8763 53.3346 82.9261 53.2341 82.9565C53.1336 82.9868 53.0283 82.9972 52.9243 82.987C52.8202 82.9768 52.7195 82.9462 52.6278 82.8969C52.5361 82.8477 52.4553 82.7807 52.39 82.7Z" fill="white"/>
<path d="M70.32 116.72C66.77 115.53 60.97 113.15 60.19 108.8C59.83 106.78 59.7267 104.853 59.88 103.02C59.91 102.674 60.0692 102.352 60.3265 102.117C60.5837 101.882 60.9203 101.751 61.27 101.75C73.4633 101.77 84.97 101.767 95.79 101.74C99.0033 101.733 100.607 100.077 100.6 96.77C100.6 91.45 100.633 86.4833 100.7 81.87C100.71 81.1325 101.01 80.4284 101.536 79.9087C102.061 79.389 102.77 79.0951 103.51 79.09L117.96 79C118.416 78.996 118.867 79.0826 119.289 79.2547C119.711 79.4268 120.095 79.6811 120.419 80.0027C120.742 80.3244 120.999 80.7072 121.175 81.129C121.35 81.5507 121.44 82.0031 121.44 82.46L121.46 134.27C121.46 134.417 121.383 134.49 121.23 134.49L76.99 134.67C75.6833 134.677 74.9 134.037 74.64 132.75L71.7 118.3C71.6266 117.938 71.4606 117.602 71.2185 117.324C70.9764 117.047 70.6667 116.839 70.32 116.72Z" fill="white"/>
<path d="M63.5512 85.6449C63.4392 85.776 63.1684 85.7621 62.7984 85.6063C62.4283 85.4506 61.9893 85.1657 61.5779 84.8143C61.3742 84.6403 61.1834 84.4552 61.0164 84.2696C60.8494 84.0841 60.7095 83.9016 60.6046 83.7327C60.4998 83.5637 60.432 83.4116 60.4053 83.2851C60.3786 83.1585 60.3934 83.06 60.4488 82.9951C60.5608 82.8641 60.8316 82.8779 61.2016 83.0337C61.5717 83.1895 62.0107 83.4744 62.4221 83.8257C62.6258 83.9997 62.8166 84.1848 62.9836 84.3704C63.1506 84.556 63.2905 84.7384 63.3954 84.9074C63.5002 85.0763 63.568 85.2284 63.5947 85.3549C63.6214 85.4815 63.6067 85.58 63.5512 85.6449Z" fill="white"/>
<path d="M67.0214 90.1382C66.9466 90.1916 66.8424 90.2024 66.7149 90.1699C66.5874 90.1374 66.439 90.0622 66.2783 89.9488C66.1175 89.8353 65.9475 89.6858 65.7779 89.5087C65.6084 89.3316 65.4426 89.1303 65.2901 88.9165C64.9821 88.4847 64.7467 88.0277 64.6358 87.6461C64.5249 87.2645 64.5475 86.9896 64.6986 86.8818C64.7734 86.8284 64.8776 86.8177 65.0051 86.8502C65.1326 86.8827 65.281 86.9578 65.4417 87.0712C65.6025 87.1847 65.7725 87.3342 65.9421 87.5113C66.1116 87.6885 66.2774 87.8897 66.4299 88.1035C66.7379 88.5353 66.9733 88.9923 67.0842 89.3739C67.1951 89.7555 67.1725 90.0304 67.0214 90.1382Z" fill="white"/>
<path d="M67.77 93.45C67.5633 93.0233 67.5033 92.57 67.59 92.09C67.6833 91.55 67.9167 91.48 68.29 91.88C68.9967 92.6333 69.37 93.5934 69.41 94.76C69.4233 95.2334 69.2167 95.3634 68.79 95.15C68.01 94.77 68.1 94.12 67.77 93.45Z" fill="white"/>
<path d="M68.91 99.33C68.77 98.8033 68.7233 98.28 68.77 97.76C68.784 97.6099 68.8473 97.4681 68.95 97.357C69.0526 97.2459 69.1888 97.1719 69.3368 97.1466C69.4849 97.1214 69.6364 97.1464 69.7673 97.2176C69.8983 97.2889 70.0013 97.4023 70.06 97.54C70.3333 98.1533 70.3667 98.7633 70.16 99.37C70.1171 99.5048 70.0313 99.6219 69.9158 99.7035C69.8003 99.7851 69.6613 99.8269 69.5199 99.8223C69.3785 99.8178 69.2425 99.7673 69.1324 99.6784C69.0223 99.5896 68.9442 99.4672 68.91 99.33Z" fill="white"/>
</svg>
